ISO-10303-21;
HEADER;
/* Generated by software containing ST-Developer
 * from STEP Tools, Inc. (www.steptools.com) 
 */

FILE_DESCRIPTION(
/* description */ (''),
/* implementation_level */ '2;1');

FILE_NAME(
/* name */ 'FLIGHT BRACKET.step',
/* time_stamp */ '2026-09-04T19:17:14+02:00',
/* author */ (''),
/* organization */ (''),
/* preprocessor_version */ 'ST-DEVELOPER v20.1',
/* originating_system */ 'Autodesk Translation Framework v15.8.0.0',
/* authorisation */ '');

FILE_SCHEMA (('AUTOMOTIVE_DESIGN { 1 0 10303 214 3 1 1 }'));
ENDSEC;

DATA;
#10=MECHANICAL_DESIGN_GEOMETRIC_PRESENTATION_REPRESENTATION('',(#13),#774);
#11=SHAPE_REPRESENTATION_RELATIONSHIP('SRR','None',#781,#12);
#12=ADVANCED_BREP_SHAPE_REPRESENTATION('',(#14),#773);
#13=STYLED_ITEM('',(#790),#14);
#14=MANIFOLD_SOLID_BREP('Body1',#482);
#15=FACE_BOUND('',#81,.T.);
#16=FACE_BOUND('',#82,.T.);
#17=FACE_BOUND('',#83,.T.);
#18=FACE_BOUND('',#84,.T.);
#19=FACE_BOUND('',#85,.T.);
#20=FACE_BOUND('',#86,.T.);
#21=FACE_BOUND('',#88,.T.);
#22=FACE_BOUND('',#89,.T.);
#23=FACE_BOUND('',#90,.T.);
#24=FACE_BOUND('',#91,.T.);
#25=FACE_BOUND('',#92,.T.);
#26=FACE_BOUND('',#93,.T.);
#27=CIRCLE('',#501,1.50000002235174);
#28=CIRCLE('',#502,1.50000002235174);
#29=CIRCLE('',#504,1.1);
#30=CIRCLE('',#505,1.1);
#31=CIRCLE('',#507,1.1);
#32=CIRCLE('',#508,1.1);
#33=CYLINDRICAL_SURFACE('',#500,1.50000002235174);
#34=CYLINDRICAL_SURFACE('',#503,1.1);
#35=CYLINDRICAL_SURFACE('',#506,1.1);
#36=FACE_OUTER_BOUND('',#59,.T.);
#37=FACE_OUTER_BOUND('',#60,.T.);
#38=FACE_OUTER_BOUND('',#61,.T.);
#39=FACE_OUTER_BOUND('',#62,.T.);
#40=FACE_OUTER_BOUND('',#63,.T.);
#41=FACE_OUTER_BOUND('',#64,.T.);
#42=FACE_OUTER_BOUND('',#65,.T.);
#43=FACE_OUTER_BOUND('',#66,.T.);
#44=FACE_OUTER_BOUND('',#67,.T.);
#45=FACE_OUTER_BOUND('',#68,.T.);
#46=FACE_OUTER_BOUND('',#69,.T.);
#47=FACE_OUTER_BOUND('',#70,.T.);
#48=FACE_OUTER_BOUND('',#71,.T.);
#49=FACE_OUTER_BOUND('',#72,.T.);
#50=FACE_OUTER_BOUND('',#73,.T.);
#51=FACE_OUTER_BOUND('',#74,.T.);
#52=FACE_OUTER_BOUND('',#75,.T.);
#53=FACE_OUTER_BOUND('',#76,.T.);
#54=FACE_OUTER_BOUND('',#77,.T.);
#55=FACE_OUTER_BOUND('',#78,.T.);
#56=FACE_OUTER_BOUND('',#79,.T.);
#57=FACE_OUTER_BOUND('',#80,.T.);
#58=FACE_OUTER_BOUND('',#87,.T.);
#59=EDGE_LOOP('',(#313,#314,#315,#316));
#60=EDGE_LOOP('',(#317,#318,#319,#320));
#61=EDGE_LOOP('',(#321,#322,#323,#324));
#62=EDGE_LOOP('',(#325,#326,#327,#328));
#63=EDGE_LOOP('',(#329,#330,#331,#332));
#64=EDGE_LOOP('',(#333,#334,#335,#336));
#65=EDGE_LOOP('',(#337,#338,#339,#340));
#66=EDGE_LOOP('',(#341,#342,#343,#344));
#67=EDGE_LOOP('',(#345,#346,#347,#348));
#68=EDGE_LOOP('',(#349,#350,#351,#352));
#69=EDGE_LOOP('',(#353,#354,#355,#356));
#70=EDGE_LOOP('',(#357,#358,#359,#360));
#71=EDGE_LOOP('',(#361,#362,#363,#364));
#72=EDGE_LOOP('',(#365,#366,#367,#368));
#73=EDGE_LOOP('',(#369,#370,#371,#372));
#74=EDGE_LOOP('',(#373,#374,#375,#376));
#75=EDGE_LOOP('',(#377,#378,#379,#380));
#76=EDGE_LOOP('',(#381,#382,#383,#384));
#77=EDGE_LOOP('',(#385,#386,#387,#388));
#78=EDGE_LOOP('',(#389,#390,#391,#392));
#79=EDGE_LOOP('',(#393,#394,#395,#396));
#80=EDGE_LOOP('',(#397,#398,#399,#400));
#81=EDGE_LOOP('',(#401,#402,#403,#404));
#82=EDGE_LOOP('',(#405,#406,#407,#408,#409,#410));
#83=EDGE_LOOP('',(#411,#412,#413,#414));
#84=EDGE_LOOP('',(#415));
#85=EDGE_LOOP('',(#416));
#86=EDGE_LOOP('',(#417));
#87=EDGE_LOOP('',(#418,#419,#420,#421));
#88=EDGE_LOOP('',(#422,#423,#424,#425));
#89=EDGE_LOOP('',(#426,#427,#428,#429,#430,#431));
#90=EDGE_LOOP('',(#432,#433,#434,#435));
#91=EDGE_LOOP('',(#436));
#92=EDGE_LOOP('',(#437));
#93=EDGE_LOOP('',(#438));
#94=LINE('',#646,#151);
#95=LINE('',#648,#152);
#96=LINE('',#650,#153);
#97=LINE('',#651,#154);
#98=LINE('',#654,#155);
#99=LINE('',#656,#156);
#100=LINE('',#657,#157);
#101=LINE('',#660,#158);
#102=LINE('',#662,#159);
#103=LINE('',#663,#160);
#104=LINE('',#666,#161);
#105=LINE('',#668,#162);
#106=LINE('',#669,#163);
#107=LINE('',#674,#164);
#108=LINE('',#680,#165);
#109=LINE('',#686,#166);
#110=LINE('',#691,#167);
#111=LINE('',#693,#168);
#112=LINE('',#695,#169);
#113=LINE('',#696,#170);
#114=LINE('',#699,#171);
#115=LINE('',#701,#172);
#116=LINE('',#702,#173);
#117=LINE('',#705,#174);
#118=LINE('',#707,#175);
#119=LINE('',#708,#176);
#120=LINE('',#710,#177);
#121=LINE('',#711,#178);
#122=LINE('',#714,#179);
#123=LINE('',#716,#180);
#124=LINE('',#717,#181);
#125=LINE('',#719,#182);
#126=LINE('',#720,#183);
#127=LINE('',#724,#184);
#128=LINE('',#726,#185);
#129=LINE('',#728,#186);
#130=LINE('',#729,#187);
#131=LINE('',#732,#188);
#132=LINE('',#734,#189);
#133=LINE('',#735,#190);
#134=LINE('',#738,#191);
#135=LINE('',#740,#192);
#136=LINE('',#741,#193);
#137=LINE('',#743,#194);
#138=LINE('',#744,#195);
#139=LINE('',#748,#196);
#140=LINE('',#750,#197);
#141=LINE('',#752,#198);
#142=LINE('',#753,#199);
#143=LINE('',#756,#200);
#144=LINE('',#758,#201);
#145=LINE('',#759,#202);
#146=LINE('',#762,#203);
#147=LINE('',#764,#204);
#148=LINE('',#765,#205);
#149=LINE('',#767,#206);
#150=LINE('',#768,#207);
#151=VECTOR('',#529,10.);
#152=VECTOR('',#530,10.);
#153=VECTOR('',#531,10.);
#154=VECTOR('',#532,10.);
#155=VECTOR('',#535,10.);
#156=VECTOR('',#536,10.);
#157=VECTOR('',#537,10.);
#158=VECTOR('',#540,10.);
#159=VECTOR('',#541,10.);
#160=VECTOR('',#542,10.);
#161=VECTOR('',#545,10.);
#162=VECTOR('',#546,10.);
#163=VECTOR('',#547,10.);
#164=VECTOR('',#552,1.50000002235174);
#165=VECTOR('',#559,1.1);
#166=VECTOR('',#566,1.1);
#167=VECTOR('',#571,10.);
#168=VECTOR('',#572,10.);
#169=VECTOR('',#573,10.);
#170=VECTOR('',#574,10.);
#171=VECTOR('',#577,10.);
#172=VECTOR('',#578,10.);
#173=VECTOR('',#579,10.);
#174=VECTOR('',#582,10.);
#175=VECTOR('',#583,10.);
#176=VECTOR('',#584,10.);
#177=VECTOR('',#587,10.);
#178=VECTOR('',#588,10.);
#179=VECTOR('',#591,10.);
#180=VECTOR('',#592,10.);
#181=VECTOR('',#593,10.);
#182=VECTOR('',#596,10.);
#183=VECTOR('',#597,10.);
#184=VECTOR('',#600,10.);
#185=VECTOR('',#601,10.);
#186=VECTOR('',#602,10.);
#187=VECTOR('',#603,10.);
#188=VECTOR('',#606,10.);
#189=VECTOR('',#607,10.);
#190=VECTOR('',#608,10.);
#191=VECTOR('',#611,10.);
#192=VECTOR('',#612,10.);
#193=VECTOR('',#613,10.);
#194=VECTOR('',#616,10.);
#195=VECTOR('',#617,10.);
#196=VECTOR('',#620,10.);
#197=VECTOR('',#621,10.);
#198=VECTOR('',#622,10.);
#199=VECTOR('',#623,10.);
#200=VECTOR('',#626,10.);
#201=VECTOR('',#627,10.);
#202=VECTOR('',#628,10.);
#203=VECTOR('',#631,10.);
#204=VECTOR('',#632,10.);
#205=VECTOR('',#633,10.);
#206=VECTOR('',#636,10.);
#207=VECTOR('',#637,10.);
#208=VERTEX_POINT('',#644);
#209=VERTEX_POINT('',#645);
#210=VERTEX_POINT('',#647);
#211=VERTEX_POINT('',#649);
#212=VERTEX_POINT('',#653);
#213=VERTEX_POINT('',#655);
#214=VERTEX_POINT('',#659);
#215=VERTEX_POINT('',#661);
#216=VERTEX_POINT('',#665);
#217=VERTEX_POINT('',#667);
#218=VERTEX_POINT('',#671);
#219=VERTEX_POINT('',#673);
#220=VERTEX_POINT('',#677);
#221=VERTEX_POINT('',#679);
#222=VERTEX_POINT('',#683);
#223=VERTEX_POINT('',#685);
#224=VERTEX_POINT('',#689);
#225=VERTEX_POINT('',#690);
#226=VERTEX_POINT('',#692);
#227=VERTEX_POINT('',#694);
#228=VERTEX_POINT('',#698);
#229=VERTEX_POINT('',#700);
#230=VERTEX_POINT('',#704);
#231=VERTEX_POINT('',#706);
#232=VERTEX_POINT('',#713);
#233=VERTEX_POINT('',#715);
#234=VERTEX_POINT('',#722);
#235=VERTEX_POINT('',#723);
#236=VERTEX_POINT('',#725);
#237=VERTEX_POINT('',#727);
#238=VERTEX_POINT('',#731);
#239=VERTEX_POINT('',#733);
#240=VERTEX_POINT('',#737);
#241=VERTEX_POINT('',#739);
#242=VERTEX_POINT('',#746);
#243=VERTEX_POINT('',#747);
#244=VERTEX_POINT('',#749);
#245=VERTEX_POINT('',#751);
#246=VERTEX_POINT('',#755);
#247=VERTEX_POINT('',#757);
#248=VERTEX_POINT('',#761);
#249=VERTEX_POINT('',#763);
#250=EDGE_CURVE('',#208,#209,#94,.T.);
#251=EDGE_CURVE('',#208,#210,#95,.T.);
#252=EDGE_CURVE('',#211,#210,#96,.T.);
#253=EDGE_CURVE('',#209,#211,#97,.T.);
#254=EDGE_CURVE('',#208,#212,#98,.T.);
#255=EDGE_CURVE('',#213,#212,#99,.T.);
#256=EDGE_CURVE('',#210,#213,#100,.T.);
#257=EDGE_CURVE('',#214,#211,#101,.T.);
#258=EDGE_CURVE('',#215,#214,#102,.T.);
#259=EDGE_CURVE('',#215,#209,#103,.T.);
#260=EDGE_CURVE('',#212,#216,#104,.T.);
#261=EDGE_CURVE('',#216,#217,#105,.T.);
#262=EDGE_CURVE('',#213,#217,#106,.T.);
#263=EDGE_CURVE('',#218,#218,#27,.T.);
#264=EDGE_CURVE('',#218,#219,#107,.T.);
#265=EDGE_CURVE('',#219,#219,#28,.T.);
#266=EDGE_CURVE('',#220,#220,#29,.T.);
#267=EDGE_CURVE('',#220,#221,#108,.T.);
#268=EDGE_CURVE('',#221,#221,#30,.T.);
#269=EDGE_CURVE('',#222,#222,#31,.T.);
#270=EDGE_CURVE('',#222,#223,#109,.T.);
#271=EDGE_CURVE('',#223,#223,#32,.T.);
#272=EDGE_CURVE('',#224,#225,#110,.T.);
#273=EDGE_CURVE('',#225,#226,#111,.T.);
#274=EDGE_CURVE('',#227,#226,#112,.T.);
#275=EDGE_CURVE('',#224,#227,#113,.T.);
#276=EDGE_CURVE('',#228,#224,#114,.T.);
#277=EDGE_CURVE('',#229,#227,#115,.T.);
#278=EDGE_CURVE('',#228,#229,#116,.T.);
#279=EDGE_CURVE('',#230,#228,#117,.T.);
#280=EDGE_CURVE('',#231,#229,#118,.T.);
#281=EDGE_CURVE('',#230,#231,#119,.T.);
#282=EDGE_CURVE('',#225,#230,#120,.T.);
#283=EDGE_CURVE('',#226,#231,#121,.T.);
#284=EDGE_CURVE('',#232,#215,#122,.T.);
#285=EDGE_CURVE('',#233,#214,#123,.T.);
#286=EDGE_CURVE('',#232,#233,#124,.T.);
#287=EDGE_CURVE('',#216,#232,#125,.T.);
#288=EDGE_CURVE('',#217,#233,#126,.T.);
#289=EDGE_CURVE('',#234,#235,#127,.T.);
#290=EDGE_CURVE('',#235,#236,#128,.T.);
#291=EDGE_CURVE('',#237,#236,#129,.T.);
#292=EDGE_CURVE('',#234,#237,#130,.T.);
#293=EDGE_CURVE('',#238,#234,#131,.T.);
#294=EDGE_CURVE('',#239,#237,#132,.T.);
#295=EDGE_CURVE('',#238,#239,#133,.T.);
#296=EDGE_CURVE('',#240,#238,#134,.T.);
#297=EDGE_CURVE('',#241,#239,#135,.T.);
#298=EDGE_CURVE('',#240,#241,#136,.T.);
#299=EDGE_CURVE('',#235,#240,#137,.T.);
#300=EDGE_CURVE('',#236,#241,#138,.T.);
#301=EDGE_CURVE('',#242,#243,#139,.T.);
#302=EDGE_CURVE('',#242,#244,#140,.T.);
#303=EDGE_CURVE('',#245,#244,#141,.T.);
#304=EDGE_CURVE('',#243,#245,#142,.T.);
#305=EDGE_CURVE('',#243,#246,#143,.T.);
#306=EDGE_CURVE('',#247,#245,#144,.T.);
#307=EDGE_CURVE('',#246,#247,#145,.T.);
#308=EDGE_CURVE('',#246,#248,#146,.T.);
#309=EDGE_CURVE('',#249,#247,#147,.T.);
#310=EDGE_CURVE('',#248,#249,#148,.T.);
#311=EDGE_CURVE('',#248,#242,#149,.T.);
#312=EDGE_CURVE('',#244,#249,#150,.T.);
#313=ORIENTED_EDGE('',*,*,#250,.F.);
#314=ORIENTED_EDGE('',*,*,#251,.T.);
#315=ORIENTED_EDGE('',*,*,#252,.F.);
#316=ORIENTED_EDGE('',*,*,#253,.F.);
#317=ORIENTED_EDGE('',*,*,#254,.T.);
#318=ORIENTED_EDGE('',*,*,#255,.F.);
#319=ORIENTED_EDGE('',*,*,#256,.F.);
#320=ORIENTED_EDGE('',*,*,#251,.F.);
#321=ORIENTED_EDGE('',*,*,#253,.T.);
#322=ORIENTED_EDGE('',*,*,#257,.F.);
#323=ORIENTED_EDGE('',*,*,#258,.F.);
#324=ORIENTED_EDGE('',*,*,#259,.T.);
#325=ORIENTED_EDGE('',*,*,#255,.T.);
#326=ORIENTED_EDGE('',*,*,#260,.T.);
#327=ORIENTED_EDGE('',*,*,#261,.T.);
#328=ORIENTED_EDGE('',*,*,#262,.F.);
#329=ORIENTED_EDGE('',*,*,#263,.F.);
#330=ORIENTED_EDGE('',*,*,#264,.T.);
#331=ORIENTED_EDGE('',*,*,#265,.F.);
#332=ORIENTED_EDGE('',*,*,#264,.F.);
#333=ORIENTED_EDGE('',*,*,#266,.F.);
#334=ORIENTED_EDGE('',*,*,#267,.T.);
#335=ORIENTED_EDGE('',*,*,#268,.F.);
#336=ORIENTED_EDGE('',*,*,#267,.F.);
#337=ORIENTED_EDGE('',*,*,#269,.F.);
#338=ORIENTED_EDGE('',*,*,#270,.T.);
#339=ORIENTED_EDGE('',*,*,#271,.F.);
#340=ORIENTED_EDGE('',*,*,#270,.F.);
#341=ORIENTED_EDGE('',*,*,#272,.T.);
#342=ORIENTED_EDGE('',*,*,#273,.T.);
#343=ORIENTED_EDGE('',*,*,#274,.F.);
#344=ORIENTED_EDGE('',*,*,#275,.F.);
#345=ORIENTED_EDGE('',*,*,#276,.T.);
#346=ORIENTED_EDGE('',*,*,#275,.T.);
#347=ORIENTED_EDGE('',*,*,#277,.F.);
#348=ORIENTED_EDGE('',*,*,#278,.F.);
#349=ORIENTED_EDGE('',*,*,#279,.T.);
#350=ORIENTED_EDGE('',*,*,#278,.T.);
#351=ORIENTED_EDGE('',*,*,#280,.F.);
#352=ORIENTED_EDGE('',*,*,#281,.F.);
#353=ORIENTED_EDGE('',*,*,#282,.T.);
#354=ORIENTED_EDGE('',*,*,#281,.T.);
#355=ORIENTED_EDGE('',*,*,#283,.F.);
#356=ORIENTED_EDGE('',*,*,#273,.F.);
#357=ORIENTED_EDGE('',*,*,#284,.T.);
#358=ORIENTED_EDGE('',*,*,#258,.T.);
#359=ORIENTED_EDGE('',*,*,#285,.F.);
#360=ORIENTED_EDGE('',*,*,#286,.F.);
#361=ORIENTED_EDGE('',*,*,#287,.T.);
#362=ORIENTED_EDGE('',*,*,#286,.T.);
#363=ORIENTED_EDGE('',*,*,#288,.F.);
#364=ORIENTED_EDGE('',*,*,#261,.F.);
#365=ORIENTED_EDGE('',*,*,#289,.T.);
#366=ORIENTED_EDGE('',*,*,#290,.T.);
#367=ORIENTED_EDGE('',*,*,#291,.F.);
#368=ORIENTED_EDGE('',*,*,#292,.F.);
#369=ORIENTED_EDGE('',*,*,#293,.T.);
#370=ORIENTED_EDGE('',*,*,#292,.T.);
#371=ORIENTED_EDGE('',*,*,#294,.F.);
#372=ORIENTED_EDGE('',*,*,#295,.F.);
#373=ORIENTED_EDGE('',*,*,#296,.T.);
#374=ORIENTED_EDGE('',*,*,#295,.T.);
#375=ORIENTED_EDGE('',*,*,#297,.F.);
#376=ORIENTED_EDGE('',*,*,#298,.F.);
#377=ORIENTED_EDGE('',*,*,#299,.T.);
#378=ORIENTED_EDGE('',*,*,#298,.T.);
#379=ORIENTED_EDGE('',*,*,#300,.F.);
#380=ORIENTED_EDGE('',*,*,#290,.F.);
#381=ORIENTED_EDGE('',*,*,#301,.F.);
#382=ORIENTED_EDGE('',*,*,#302,.T.);
#383=ORIENTED_EDGE('',*,*,#303,.F.);
#384=ORIENTED_EDGE('',*,*,#304,.F.);
#385=ORIENTED_EDGE('',*,*,#305,.F.);
#386=ORIENTED_EDGE('',*,*,#304,.T.);
#387=ORIENTED_EDGE('',*,*,#306,.F.);
#388=ORIENTED_EDGE('',*,*,#307,.F.);
#389=ORIENTED_EDGE('',*,*,#308,.F.);
#390=ORIENTED_EDGE('',*,*,#307,.T.);
#391=ORIENTED_EDGE('',*,*,#309,.F.);
#392=ORIENTED_EDGE('',*,*,#310,.F.);
#393=ORIENTED_EDGE('',*,*,#311,.F.);
#394=ORIENTED_EDGE('',*,*,#310,.T.);
#395=ORIENTED_EDGE('',*,*,#312,.F.);
#396=ORIENTED_EDGE('',*,*,#302,.F.);
#397=ORIENTED_EDGE('',*,*,#312,.T.);
#398=ORIENTED_EDGE('',*,*,#309,.T.);
#399=ORIENTED_EDGE('',*,*,#306,.T.);
#400=ORIENTED_EDGE('',*,*,#303,.T.);
#401=ORIENTED_EDGE('',*,*,#283,.T.);
#402=ORIENTED_EDGE('',*,*,#280,.T.);
#403=ORIENTED_EDGE('',*,*,#277,.T.);
#404=ORIENTED_EDGE('',*,*,#274,.T.);
#405=ORIENTED_EDGE('',*,*,#262,.T.);
#406=ORIENTED_EDGE('',*,*,#288,.T.);
#407=ORIENTED_EDGE('',*,*,#285,.T.);
#408=ORIENTED_EDGE('',*,*,#257,.T.);
#409=ORIENTED_EDGE('',*,*,#252,.T.);
#410=ORIENTED_EDGE('',*,*,#256,.T.);
#411=ORIENTED_EDGE('',*,*,#300,.T.);
#412=ORIENTED_EDGE('',*,*,#297,.T.);
#413=ORIENTED_EDGE('',*,*,#294,.T.);
#414=ORIENTED_EDGE('',*,*,#291,.T.);
#415=ORIENTED_EDGE('',*,*,#269,.T.);
#416=ORIENTED_EDGE('',*,*,#266,.T.);
#417=ORIENTED_EDGE('',*,*,#263,.T.);
#418=ORIENTED_EDGE('',*,*,#311,.T.);
#419=ORIENTED_EDGE('',*,*,#301,.T.);
#420=ORIENTED_EDGE('',*,*,#305,.T.);
#421=ORIENTED_EDGE('',*,*,#308,.T.);
#422=ORIENTED_EDGE('',*,*,#282,.F.);
#423=ORIENTED_EDGE('',*,*,#272,.F.);
#424=ORIENTED_EDGE('',*,*,#276,.F.);
#425=ORIENTED_EDGE('',*,*,#279,.F.);
#426=ORIENTED_EDGE('',*,*,#259,.F.);
#427=ORIENTED_EDGE('',*,*,#284,.F.);
#428=ORIENTED_EDGE('',*,*,#287,.F.);
#429=ORIENTED_EDGE('',*,*,#260,.F.);
#430=ORIENTED_EDGE('',*,*,#254,.F.);
#431=ORIENTED_EDGE('',*,*,#250,.T.);
#432=ORIENTED_EDGE('',*,*,#299,.F.);
#433=ORIENTED_EDGE('',*,*,#289,.F.);
#434=ORIENTED_EDGE('',*,*,#293,.F.);
#435=ORIENTED_EDGE('',*,*,#296,.F.);
#436=ORIENTED_EDGE('',*,*,#271,.T.);
#437=ORIENTED_EDGE('',*,*,#268,.T.);
#438=ORIENTED_EDGE('',*,*,#265,.T.);
#439=PLANE('',#496);
#440=PLANE('',#497);
#441=PLANE('',#498);
#442=PLANE('',#499);
#443=PLANE('',#509);
#444=PLANE('',#510);
#445=PLANE('',#511);
#446=PLANE('',#512);
#447=PLANE('',#513);
#448=PLANE('',#514);
#449=PLANE('',#515);
#450=PLANE('',#516);
#451=PLANE('',#517);
#452=PLANE('',#518);
#453=PLANE('',#519);
#454=PLANE('',#520);
#455=PLANE('',#521);
#456=PLANE('',#522);
#457=PLANE('',#523);
#458=PLANE('',#524);
#459=ADVANCED_FACE('',(#36),#439,.T.);
#460=ADVANCED_FACE('',(#37),#440,.T.);
#461=ADVANCED_FACE('',(#38),#441,.T.);
#462=ADVANCED_FACE('',(#39),#442,.T.);
#463=ADVANCED_FACE('',(#40),#33,.F.);
#464=ADVANCED_FACE('',(#41),#34,.F.);
#465=ADVANCED_FACE('',(#42),#35,.F.);
#466=ADVANCED_FACE('',(#43),#443,.T.);
#467=ADVANCED_FACE('',(#44),#444,.T.);
#468=ADVANCED_FACE('',(#45),#445,.T.);
#469=ADVANCED_FACE('',(#46),#446,.T.);
#470=ADVANCED_FACE('',(#47),#447,.T.);
#471=ADVANCED_FACE('',(#48),#448,.T.);
#472=ADVANCED_FACE('',(#49),#449,.T.);
#473=ADVANCED_FACE('',(#50),#450,.T.);
#474=ADVANCED_FACE('',(#51),#451,.T.);
#475=ADVANCED_FACE('',(#52),#452,.T.);
#476=ADVANCED_FACE('',(#53),#453,.T.);
#477=ADVANCED_FACE('',(#54),#454,.T.);
#478=ADVANCED_FACE('',(#55),#455,.T.);
#479=ADVANCED_FACE('',(#56),#456,.T.);
#480=ADVANCED_FACE('',(#57,#15,#16,#17,#18,#19,#20),#457,.T.);
#481=ADVANCED_FACE('',(#58,#21,#22,#23,#24,#25,#26),#458,.F.);
#482=CLOSED_SHELL('',(#459,#460,#461,#462,#463,#464,#465,#466,#467,#468,
#469,#470,#471,#472,#473,#474,#475,#476,#477,#478,#479,#480,#481));
#483=DERIVED_UNIT_ELEMENT(#485,1.);
#484=DERIVED_UNIT_ELEMENT(#776,-3.);
#485=(
MASS_UNIT()
NAMED_UNIT(*)
SI_UNIT(.KILO.,.GRAM.)
);
#486=DERIVED_UNIT((#483,#484));
#487=MEASURE_REPRESENTATION_ITEM('density measure',
POSITIVE_RATIO_MEASURE(7850.),#486);
#488=PROPERTY_DEFINITION_REPRESENTATION(#493,#490);
#489=PROPERTY_DEFINITION_REPRESENTATION(#494,#491);
#490=REPRESENTATION('material name',(#492),#773);
#491=REPRESENTATION('density',(#487),#773);
#492=DESCRIPTIVE_REPRESENTATION_ITEM('Steel','Steel');
#493=PROPERTY_DEFINITION('material property','material name',#783);
#494=PROPERTY_DEFINITION('material property','density of part',#783);
#495=AXIS2_PLACEMENT_3D('',#642,#525,#526);
#496=AXIS2_PLACEMENT_3D('',#643,#527,#528);
#497=AXIS2_PLACEMENT_3D('',#652,#533,#534);
#498=AXIS2_PLACEMENT_3D('',#658,#538,#539);
#499=AXIS2_PLACEMENT_3D('',#664,#543,#544);
#500=AXIS2_PLACEMENT_3D('',#670,#548,#549);
#501=AXIS2_PLACEMENT_3D('',#672,#550,#551);
#502=AXIS2_PLACEMENT_3D('',#675,#553,#554);
#503=AXIS2_PLACEMENT_3D('',#676,#555,#556);
#504=AXIS2_PLACEMENT_3D('',#678,#557,#558);
#505=AXIS2_PLACEMENT_3D('',#681,#560,#561);
#506=AXIS2_PLACEMENT_3D('',#682,#562,#563);
#507=AXIS2_PLACEMENT_3D('',#684,#564,#565);
#508=AXIS2_PLACEMENT_3D('',#687,#567,#568);
#509=AXIS2_PLACEMENT_3D('',#688,#569,#570);
#510=AXIS2_PLACEMENT_3D('',#697,#575,#576);
#511=AXIS2_PLACEMENT_3D('',#703,#580,#581);
#512=AXIS2_PLACEMENT_3D('',#709,#585,#586);
#513=AXIS2_PLACEMENT_3D('',#712,#589,#590);
#514=AXIS2_PLACEMENT_3D('',#718,#594,#595);
#515=AXIS2_PLACEMENT_3D('',#721,#598,#599);
#516=AXIS2_PLACEMENT_3D('',#730,#604,#605);
#517=AXIS2_PLACEMENT_3D('',#736,#609,#610);
#518=AXIS2_PLACEMENT_3D('',#742,#614,#615);
#519=AXIS2_PLACEMENT_3D('',#745,#618,#619);
#520=AXIS2_PLACEMENT_3D('',#754,#624,#625);
#521=AXIS2_PLACEMENT_3D('',#760,#629,#630);
#522=AXIS2_PLACEMENT_3D('',#766,#634,#635);
#523=AXIS2_PLACEMENT_3D('',#769,#638,#639);
#524=AXIS2_PLACEMENT_3D('',#770,#640,#641);
#525=DIRECTION('axis',(0.,0.,1.));
#526=DIRECTION('refdir',(1.,0.,0.));
#527=DIRECTION('center_axis',(-1.,0.,0.));
#528=DIRECTION('ref_axis',(0.,-1.,0.));
#529=DIRECTION('',(0.,1.,0.));
#530=DIRECTION('',(0.,0.,1.));
#531=DIRECTION('',(0.,-1.,0.));
#532=DIRECTION('',(0.,0.,1.));
#533=DIRECTION('center_axis',(0.,1.,0.));
#534=DIRECTION('ref_axis',(-1.,0.,0.));
#535=DIRECTION('',(-1.,0.,0.));
#536=DIRECTION('',(0.,0.,-1.));
#537=DIRECTION('',(-1.,0.,0.));
#538=DIRECTION('center_axis',(0.,-1.,0.));
#539=DIRECTION('ref_axis',(1.,0.,0.));
#540=DIRECTION('',(1.,0.,0.));
#541=DIRECTION('',(0.,0.,1.));
#542=DIRECTION('',(1.,0.,0.));
#543=DIRECTION('center_axis',(1.,0.,0.));
#544=DIRECTION('ref_axis',(0.,1.,0.));
#545=DIRECTION('',(0.,1.,0.));
#546=DIRECTION('',(0.,0.,1.));
#547=DIRECTION('',(0.,1.,0.));
#548=DIRECTION('center_axis',(0.,0.,-1.));
#549=DIRECTION('ref_axis',(-1.,0.,0.));
#550=DIRECTION('center_axis',(0.,0.,-1.));
#551=DIRECTION('ref_axis',(-1.,0.,0.));
#552=DIRECTION('',(0.,0.,-1.));
#553=DIRECTION('center_axis',(0.,0.,1.));
#554=DIRECTION('ref_axis',(-1.,0.,0.));
#555=DIRECTION('center_axis',(0.,0.,-1.));
#556=DIRECTION('ref_axis',(-1.,0.,0.));
#557=DIRECTION('center_axis',(0.,0.,-1.));
#558=DIRECTION('ref_axis',(-1.,0.,0.));
#559=DIRECTION('',(0.,0.,-1.));
#560=DIRECTION('center_axis',(0.,0.,1.));
#561=DIRECTION('ref_axis',(-1.,0.,0.));
#562=DIRECTION('center_axis',(0.,0.,-1.));
#563=DIRECTION('ref_axis',(-1.,0.,0.));
#564=DIRECTION('center_axis',(0.,0.,-1.));
#565=DIRECTION('ref_axis',(-1.,0.,0.));
#566=DIRECTION('',(0.,0.,-1.));
#567=DIRECTION('center_axis',(0.,0.,1.));
#568=DIRECTION('ref_axis',(-1.,0.,0.));
#569=DIRECTION('center_axis',(0.,1.,0.));
#570=DIRECTION('ref_axis',(-1.,0.,0.));
#571=DIRECTION('',(-1.,0.,0.));
#572=DIRECTION('',(0.,0.,1.));
#573=DIRECTION('',(-1.,0.,0.));
#574=DIRECTION('',(0.,0.,1.));
#575=DIRECTION('center_axis',(-1.,0.,0.));
#576=DIRECTION('ref_axis',(0.,-1.,0.));
#577=DIRECTION('',(0.,-1.,0.));
#578=DIRECTION('',(0.,-1.,0.));
#579=DIRECTION('',(0.,0.,1.));
#580=DIRECTION('center_axis',(0.,-1.,0.));
#581=DIRECTION('ref_axis',(1.,0.,0.));
#582=DIRECTION('',(1.,0.,0.));
#583=DIRECTION('',(1.,0.,0.));
#584=DIRECTION('',(0.,0.,1.));
#585=DIRECTION('center_axis',(1.,0.,0.));
#586=DIRECTION('ref_axis',(0.,1.,0.));
#587=DIRECTION('',(0.,1.,0.));
#588=DIRECTION('',(0.,1.,0.));
#589=DIRECTION('center_axis',(-1.,0.,0.));
#590=DIRECTION('ref_axis',(0.,-1.,0.));
#591=DIRECTION('',(0.,-1.,0.));
#592=DIRECTION('',(0.,-1.,0.));
#593=DIRECTION('',(0.,0.,1.));
#594=DIRECTION('center_axis',(0.,-1.,0.));
#595=DIRECTION('ref_axis',(1.,0.,0.));
#596=DIRECTION('',(1.,0.,0.));
#597=DIRECTION('',(1.,0.,0.));
#598=DIRECTION('center_axis',(0.,1.,0.));
#599=DIRECTION('ref_axis',(-1.,0.,0.));
#600=DIRECTION('',(-1.,0.,0.));
#601=DIRECTION('',(0.,0.,1.));
#602=DIRECTION('',(-1.,0.,0.));
#603=DIRECTION('',(0.,0.,1.));
#604=DIRECTION('center_axis',(-1.,0.,0.));
#605=DIRECTION('ref_axis',(0.,-1.,0.));
#606=DIRECTION('',(0.,-1.,0.));
#607=DIRECTION('',(0.,-1.,0.));
#608=DIRECTION('',(0.,0.,1.));
#609=DIRECTION('center_axis',(0.,-1.,0.));
#610=DIRECTION('ref_axis',(1.,0.,0.));
#611=DIRECTION('',(1.,0.,0.));
#612=DIRECTION('',(1.,0.,0.));
#613=DIRECTION('',(0.,0.,1.));
#614=DIRECTION('center_axis',(1.,0.,0.));
#615=DIRECTION('ref_axis',(0.,1.,0.));
#616=DIRECTION('',(0.,1.,0.));
#617=DIRECTION('',(0.,1.,0.));
#618=DIRECTION('center_axis',(0.,1.,0.));
#619=DIRECTION('ref_axis',(-1.,0.,0.));
#620=DIRECTION('',(1.,0.,0.));
#621=DIRECTION('',(0.,0.,1.));
#622=DIRECTION('',(-1.,0.,0.));
#623=DIRECTION('',(0.,0.,1.));
#624=DIRECTION('center_axis',(1.,0.,0.));
#625=DIRECTION('ref_axis',(0.,1.,0.));
#626=DIRECTION('',(0.,-1.,0.));
#627=DIRECTION('',(0.,1.,0.));
#628=DIRECTION('',(0.,0.,1.));
#629=DIRECTION('center_axis',(0.,-1.,0.));
#630=DIRECTION('ref_axis',(1.,0.,0.));
#631=DIRECTION('',(-1.,0.,0.));
#632=DIRECTION('',(1.,0.,0.));
#633=DIRECTION('',(0.,0.,1.));
#634=DIRECTION('center_axis',(-1.,0.,0.));
#635=DIRECTION('ref_axis',(0.,-1.,0.));
#636=DIRECTION('',(0.,1.,0.));
#637=DIRECTION('',(0.,-1.,0.));
#638=DIRECTION('center_axis',(0.,0.,1.));
#639=DIRECTION('ref_axis',(1.,0.,0.));
#640=DIRECTION('center_axis',(0.,0.,1.));
#641=DIRECTION('ref_axis',(1.,0.,0.));
#642=CARTESIAN_POINT('',(0.,0.,0.));
#643=CARTESIAN_POINT('Origin',(-15.0000002235174,29.0000004321337,0.));
#644=CARTESIAN_POINT('',(-15.0000002235174,-5.00000007450581,0.));
#645=CARTESIAN_POINT('',(-15.0000002235174,29.0000004321337,0.));
#646=CARTESIAN_POINT('',(-15.0000002235174,-6.00000008940697,0.));
#647=CARTESIAN_POINT('',(-15.0000002235174,-5.00000007450581,2.));
#648=CARTESIAN_POINT('',(-15.0000002235174,-5.00000007450581,0.));
#649=CARTESIAN_POINT('',(-15.0000002235174,29.0000004321337,2.));
#650=CARTESIAN_POINT('',(-15.0000002235174,-6.00000008940697,2.));
#651=CARTESIAN_POINT('',(-15.0000002235174,29.0000004321337,0.));
#652=CARTESIAN_POINT('Origin',(-15.0000002235174,-5.00000007450581,0.));
#653=CARTESIAN_POINT('',(-45.0000006705523,-5.00000007450581,0.));
#654=CARTESIAN_POINT('',(-14.0000002086163,-5.00000007450581,0.));
#655=CARTESIAN_POINT('',(-45.0000006705523,-5.00000007450581,2.));
#656=CARTESIAN_POINT('',(-45.0000006705523,-5.00000007450581,0.));
#657=CARTESIAN_POINT('',(-14.0000002086163,-5.00000007450581,2.));
#658=CARTESIAN_POINT('Origin',(-38.0000005662441,29.0000004321337,0.));
#659=CARTESIAN_POINT('',(-38.0000005662441,29.0000004321337,2.));
#660=CARTESIAN_POINT('',(-38.0000005662441,29.0000004321337,2.));
#661=CARTESIAN_POINT('',(-38.0000005662441,29.0000004321337,0.));
#662=CARTESIAN_POINT('',(-38.0000005662441,29.0000004321337,0.));
#663=CARTESIAN_POINT('',(-38.0000005662441,29.0000004321337,0.));
#664=CARTESIAN_POINT('Origin',(-45.0000006705523,-6.00000008940697,0.));
#665=CARTESIAN_POINT('',(-45.0000006705523,48.0000007152557,0.));
#666=CARTESIAN_POINT('',(-45.0000006705523,48.0000007152557,0.));
#667=CARTESIAN_POINT('',(-45.0000006705523,48.0000007152557,2.));
#668=CARTESIAN_POINT('',(-45.0000006705523,48.0000007152557,0.));
#669=CARTESIAN_POINT('',(-45.0000006705523,48.0000007152557,2.));
#670=CARTESIAN_POINT('Origin',(-36.0000005364418,31.000000461936,2.));
#671=CARTESIAN_POINT('',(-34.5000005140901,31.000000461936,2.));
#672=CARTESIAN_POINT('Origin',(-36.0000005364418,31.000000461936,2.));
#673=CARTESIAN_POINT('',(-34.5000005140901,31.000000461936,0.));
#674=CARTESIAN_POINT('',(-34.5000005140901,31.000000461936,2.));
#675=CARTESIAN_POINT('Origin',(-36.0000005364418,31.000000461936,0.));
#676=CARTESIAN_POINT('Origin',(-69.7599445348657,44.9000007450581,2.));
#677=CARTESIAN_POINT('',(-68.6599445348657,44.9000007450581,2.));
#678=CARTESIAN_POINT('Origin',(-69.7599445348657,44.9000007450581,2.));
#679=CARTESIAN_POINT('',(-68.6599445348657,44.9000007450581,0.));
#680=CARTESIAN_POINT('',(-68.6599445348657,44.9000007450581,2.));
#681=CARTESIAN_POINT('Origin',(-69.7599445348657,44.9000007450581,0.));
#682=CARTESIAN_POINT('Origin',(-69.7999984398484,-2.89600011920929,2.));
#683=CARTESIAN_POINT('',(-68.6999984398484,-2.89600011920929,2.));
#684=CARTESIAN_POINT('Origin',(-69.7999984398484,-2.89600011920929,2.));
#685=CARTESIAN_POINT('',(-68.6999984398484,-2.89600011920929,0.));
#686=CARTESIAN_POINT('',(-68.6999984398484,-2.89600011920929,2.));
#687=CARTESIAN_POINT('Origin',(-69.7999984398484,-2.89600011920929,0.));
#688=CARTESIAN_POINT('Origin',(-14.0000002086163,33.0000004917383,0.));
#689=CARTESIAN_POINT('',(-14.0000002086163,33.0000004917383,0.));
#690=CARTESIAN_POINT('',(-34.0000005066395,33.0000004917383,0.));
#691=CARTESIAN_POINT('',(-34.0000005066395,33.0000004917383,0.));
#692=CARTESIAN_POINT('',(-34.0000005066395,33.0000004917383,2.));
#693=CARTESIAN_POINT('',(-34.0000005066395,33.0000004917383,0.));
#694=CARTESIAN_POINT('',(-14.0000002086163,33.0000004917383,2.));
#695=CARTESIAN_POINT('',(-34.0000005066395,33.0000004917383,2.));
#696=CARTESIAN_POINT('',(-14.0000002086163,33.0000004917383,0.));
#697=CARTESIAN_POINT('Origin',(-14.0000002086163,48.0000007152557,0.));
#698=CARTESIAN_POINT('',(-14.0000002086163,48.0000007152557,0.));
#699=CARTESIAN_POINT('',(-14.0000002086163,50.0000007450581,0.));
#700=CARTESIAN_POINT('',(-14.0000002086163,48.0000007152557,2.));
#701=CARTESIAN_POINT('',(-14.0000002086163,50.0000007450581,2.));
#702=CARTESIAN_POINT('',(-14.0000002086163,48.0000007152557,0.));
#703=CARTESIAN_POINT('Origin',(-34.0000005066395,48.0000007152557,0.));
#704=CARTESIAN_POINT('',(-34.0000005066395,48.0000007152557,0.));
#705=CARTESIAN_POINT('',(-45.0000006705523,48.0000007152557,0.));
#706=CARTESIAN_POINT('',(-34.0000005066395,48.0000007152557,2.));
#707=CARTESIAN_POINT('',(-45.0000006705523,48.0000007152557,2.));
#708=CARTESIAN_POINT('',(-34.0000005066395,48.0000007152557,0.));
#709=CARTESIAN_POINT('Origin',(-34.0000005066395,33.0000004917383,0.));
#710=CARTESIAN_POINT('',(-34.0000005066395,48.0000007152557,0.));
#711=CARTESIAN_POINT('',(-34.0000005066395,48.0000007152557,2.));
#712=CARTESIAN_POINT('Origin',(-38.0000005662441,48.0000007152557,0.));
#713=CARTESIAN_POINT('',(-38.0000005662441,48.0000007152557,0.));
#714=CARTESIAN_POINT('',(-38.0000005662441,30.0000004470348,0.));
#715=CARTESIAN_POINT('',(-38.0000005662441,48.0000007152557,2.));
#716=CARTESIAN_POINT('',(-38.0000005662441,30.0000004470348,2.));
#717=CARTESIAN_POINT('',(-38.0000005662441,48.0000007152557,0.));
#718=CARTESIAN_POINT('Origin',(-45.0000006705523,48.0000007152557,0.));
#719=CARTESIAN_POINT('',(-45.0000006705523,48.0000007152557,0.));
#720=CARTESIAN_POINT('',(-45.0000006705523,48.0000007152557,2.));
#721=CARTESIAN_POINT('Origin',(-59.0000008791685,-6.00000008940697,0.));
#722=CARTESIAN_POINT('',(-59.0000008791685,-6.00000008940697,0.));
#723=CARTESIAN_POINT('',(-68.000001013279,-6.00000008940697,0.));
#724=CARTESIAN_POINT('',(-59.0000008791685,-6.00000008940697,0.));
#725=CARTESIAN_POINT('',(-68.000001013279,-6.00000008940697,2.));
#726=CARTESIAN_POINT('',(-68.000001013279,-6.00000008940697,0.));
#727=CARTESIAN_POINT('',(-59.0000008791685,-6.00000008940697,2.));
#728=CARTESIAN_POINT('',(-59.0000008791685,-6.00000008940697,2.));
#729=CARTESIAN_POINT('',(-59.0000008791685,-6.00000008940697,0.));
#730=CARTESIAN_POINT('Origin',(-59.0000008791685,48.0000007152557,0.));
#731=CARTESIAN_POINT('',(-59.0000008791685,48.0000007152557,0.));
#732=CARTESIAN_POINT('',(-59.0000008791685,48.0000007152557,0.));
#733=CARTESIAN_POINT('',(-59.0000008791685,48.0000007152557,2.));
#734=CARTESIAN_POINT('',(-59.0000008791685,48.0000007152557,2.));
#735=CARTESIAN_POINT('',(-59.0000008791685,48.0000007152557,0.));
#736=CARTESIAN_POINT('Origin',(-68.000001013279,48.0000007152557,0.));
#737=CARTESIAN_POINT('',(-68.000001013279,48.0000007152557,0.));
#738=CARTESIAN_POINT('',(-68.000001013279,48.0000007152557,0.));
#739=CARTESIAN_POINT('',(-68.000001013279,48.0000007152557,2.));
#740=CARTESIAN_POINT('',(-68.000001013279,48.0000007152557,2.));
#741=CARTESIAN_POINT('',(-68.000001013279,48.0000007152557,0.));
#742=CARTESIAN_POINT('Origin',(-68.000001013279,-6.00000008940697,0.));
#743=CARTESIAN_POINT('',(-68.000001013279,48.0000007152557,0.));
#744=CARTESIAN_POINT('',(-68.000001013279,48.0000007152557,2.));
#745=CARTESIAN_POINT('Origin',(-12.,50.,0.));
#746=CARTESIAN_POINT('',(-75.,50.,0.));
#747=CARTESIAN_POINT('',(-12.,50.,0.));
#748=CARTESIAN_POINT('',(-75.,50.,0.));
#749=CARTESIAN_POINT('',(-75.,50.,2.));
#750=CARTESIAN_POINT('',(-75.,50.,0.));
#751=CARTESIAN_POINT('',(-12.,50.,2.));
#752=CARTESIAN_POINT('',(-75.,50.,2.));
#753=CARTESIAN_POINT('',(-12.,50.,0.));
#754=CARTESIAN_POINT('Origin',(-12.,-8.00000000000001,0.));
#755=CARTESIAN_POINT('',(-12.,-8.00000000000001,0.));
#756=CARTESIAN_POINT('',(-12.,50.,0.));
#757=CARTESIAN_POINT('',(-12.,-8.00000000000001,2.));
#758=CARTESIAN_POINT('',(-12.,50.,2.));
#759=CARTESIAN_POINT('',(-12.,-8.00000000000001,0.));
#760=CARTESIAN_POINT('Origin',(-75.,-8.00000000000001,0.));
#761=CARTESIAN_POINT('',(-75.,-8.00000000000001,0.));
#762=CARTESIAN_POINT('',(-12.,-8.00000000000001,0.));
#763=CARTESIAN_POINT('',(-75.,-8.00000000000001,2.));
#764=CARTESIAN_POINT('',(-12.,-8.00000000000001,2.));
#765=CARTESIAN_POINT('',(-75.,-8.00000000000001,0.));
#766=CARTESIAN_POINT('Origin',(-75.,50.,0.));
#767=CARTESIAN_POINT('',(-75.,-8.00000000000001,0.));
#768=CARTESIAN_POINT('',(-75.,-8.00000000000001,2.));
#769=CARTESIAN_POINT('Origin',(-43.5,21.,2.));
#770=CARTESIAN_POINT('Origin',(-43.5,21.,0.));
#771=UNCERTAINTY_MEASURE_WITH_UNIT(LENGTH_MEASURE(0.01),#775,
'DISTANCE_ACCURACY_VALUE',
'Maximum model space distance between geometric entities at asserted c
onnectivities');
#772=UNCERTAINTY_MEASURE_WITH_UNIT(LENGTH_MEASURE(0.01),#775,
'DISTANCE_ACCURACY_VALUE',
'Maximum model space distance between geometric entities at asserted c
onnectivities');
#773=(
GEOMETRIC_REPRESENTATION_CONTEXT(3)
GLOBAL_UNCERTAINTY_ASSIGNED_CONTEXT((#771))
GLOBAL_UNIT_ASSIGNED_CONTEXT((#775,#777,#778))
REPRESENTATION_CONTEXT('','3D')
);
#774=(
GEOMETRIC_REPRESENTATION_CONTEXT(3)
GLOBAL_UNCERTAINTY_ASSIGNED_CONTEXT((#772))
GLOBAL_UNIT_ASSIGNED_CONTEXT((#775,#777,#778))
REPRESENTATION_CONTEXT('','3D')
);
#775=(
LENGTH_UNIT()
NAMED_UNIT(*)
SI_UNIT(.MILLI.,.METRE.)
);
#776=(
LENGTH_UNIT()
NAMED_UNIT(*)
SI_UNIT($,.METRE.)
);
#777=(
NAMED_UNIT(*)
PLANE_ANGLE_UNIT()
SI_UNIT($,.RADIAN.)
);
#778=(
NAMED_UNIT(*)
SI_UNIT($,.STERADIAN.)
SOLID_ANGLE_UNIT()
);
#779=SHAPE_DEFINITION_REPRESENTATION(#780,#781);
#780=PRODUCT_DEFINITION_SHAPE('',$,#783);
#781=SHAPE_REPRESENTATION('',(#495),#773);
#782=PRODUCT_DEFINITION_CONTEXT('part definition',#787,'design');
#783=PRODUCT_DEFINITION('FLIGHT BRACKET','FLIGHT BRACKET v1',#784,#782);
#784=PRODUCT_DEFINITION_FORMATION('',$,#789);
#785=PRODUCT_RELATED_PRODUCT_CATEGORY('FLIGHT BRACKET v1',
'FLIGHT BRACKET v1',(#789));
#786=APPLICATION_PROTOCOL_DEFINITION('international standard',
'automotive_design',2009,#787);
#787=APPLICATION_CONTEXT(
'Core Data for Automotive Mechanical Design Process');
#788=PRODUCT_CONTEXT('part definition',#787,'mechanical');
#789=PRODUCT('FLIGHT BRACKET','FLIGHT BRACKET v1',$,(#788));
#790=PRESENTATION_STYLE_ASSIGNMENT((#791));
#791=SURFACE_STYLE_USAGE(.BOTH.,#792);
#792=SURFACE_SIDE_STYLE('',(#793));
#793=SURFACE_STYLE_FILL_AREA(#794);
#794=FILL_AREA_STYLE('Steel - Satin',(#795));
#795=FILL_AREA_STYLE_COLOUR('Steel - Satin',#796);
#796=COLOUR_RGB('Steel - Satin',0.627450980392157,0.627450980392157,0.627450980392157);
ENDSEC;
END-ISO-10303-21;
