ISO-10303-21;
HEADER;
/* Generated by software containing ST-Developer
 * from STEP Tools, Inc. (www.steptools.com) 
 */

FILE_DESCRIPTION(
/* description */ (''),
/* implementation_level */ '2;1');

FILE_NAME(
/* name */ 'MOUNT.step',
/* time_stamp */ '2026-09-12T22:50:50+02:00',
/* author */ (''),
/* organization */ (''),
/* preprocessor_version */ 'ST-DEVELOPER v20.2',
/* originating_system */ 'Autodesk Translation Framework v15.15.0.0',
/* authorisation */ '');

FILE_SCHEMA (('AUTOMOTIVE_DESIGN { 1 0 10303 214 3 1 1 }'));
ENDSEC;

DATA;
#10=MECHANICAL_DESIGN_GEOMETRIC_PRESENTATION_REPRESENTATION('',(#13),#1500);
#11=SHAPE_REPRESENTATION_RELATIONSHIP('SRR','None',#1506,#12);
#12=ADVANCED_BREP_SHAPE_REPRESENTATION('',(#14),#1499);
#13=STYLED_ITEM('',(#1515),#14);
#14=MANIFOLD_SOLID_BREP('Body1',#902);
#15=FACE_BOUND('',#122,.T.);
#16=FACE_BOUND('',#123,.T.);
#17=FACE_BOUND('',#124,.T.);
#18=FACE_BOUND('',#125,.T.);
#19=FACE_BOUND('',#126,.T.);
#20=FACE_BOUND('',#127,.T.);
#21=FACE_BOUND('',#166,.T.);
#22=FACE_BOUND('',#167,.T.);
#23=FACE_BOUND('',#168,.T.);
#24=FACE_BOUND('',#169,.T.);
#25=FACE_BOUND('',#170,.T.);
#26=FACE_BOUND('',#171,.T.);
#27=PLANE('',#917);
#28=PLANE('',#918);
#29=PLANE('',#935);
#30=PLANE('',#938);
#31=PLANE('',#941);
#32=PLANE('',#944);
#33=PLANE('',#947);
#34=PLANE('',#952);
#35=PLANE('',#955);
#36=PLANE('',#958);
#37=PLANE('',#961);
#38=PLANE('',#968);
#39=PLANE('',#969);
#40=PLANE('',#970);
#41=PLANE('',#971);
#42=PLANE('',#972);
#43=PLANE('',#975);
#44=PLANE('',#976);
#45=PLANE('',#977);
#46=PLANE('',#978);
#47=PLANE('',#979);
#48=PLANE('',#980);
#49=PLANE('',#981);
#50=PLANE('',#982);
#51=PLANE('',#983);
#52=PLANE('',#984);
#53=CYLINDRICAL_SURFACE('',#907,0.9);
#54=CYLINDRICAL_SURFACE('',#912,0.9);
#55=CYLINDRICAL_SURFACE('',#914,2.);
#56=CYLINDRICAL_SURFACE('',#933,2.);
#57=CYLINDRICAL_SURFACE('',#936,2.);
#58=CYLINDRICAL_SURFACE('',#939,2.);
#59=CYLINDRICAL_SURFACE('',#942,2.);
#60=CYLINDRICAL_SURFACE('',#945,2.);
#61=CYLINDRICAL_SURFACE('',#948,2.);
#62=CYLINDRICAL_SURFACE('',#950,2.);
#63=CYLINDRICAL_SURFACE('',#953,2.);
#64=CYLINDRICAL_SURFACE('',#956,2.);
#65=CYLINDRICAL_SURFACE('',#959,2.);
#66=CYLINDRICAL_SURFACE('',#962,2.);
#67=CYLINDRICAL_SURFACE('',#964,1.25);
#68=CYLINDRICAL_SURFACE('',#966,1.25);
#69=CYLINDRICAL_SURFACE('',#973,1.25);
#70=FACE_OUTER_BOUND('',#115,.T.);
#71=FACE_OUTER_BOUND('',#116,.T.);
#72=FACE_OUTER_BOUND('',#117,.T.);
#73=FACE_OUTER_BOUND('',#118,.T.);
#74=FACE_OUTER_BOUND('',#119,.T.);
#75=FACE_OUTER_BOUND('',#120,.T.);
#76=FACE_OUTER_BOUND('',#121,.T.);
#77=FACE_OUTER_BOUND('',#128,.T.);
#78=FACE_OUTER_BOUND('',#129,.T.);
#79=FACE_OUTER_BOUND('',#130,.T.);
#80=FACE_OUTER_BOUND('',#131,.T.);
#81=FACE_OUTER_BOUND('',#132,.T.);
#82=FACE_OUTER_BOUND('',#133,.T.);
#83=FACE_OUTER_BOUND('',#134,.T.);
#84=FACE_OUTER_BOUND('',#135,.T.);
#85=FACE_OUTER_BOUND('',#136,.T.);
#86=FACE_OUTER_BOUND('',#137,.T.);
#87=FACE_OUTER_BOUND('',#138,.T.);
#88=FACE_OUTER_BOUND('',#139,.T.);
#89=FACE_OUTER_BOUND('',#140,.T.);
#90=FACE_OUTER_BOUND('',#141,.T.);
#91=FACE_OUTER_BOUND('',#142,.T.);
#92=FACE_OUTER_BOUND('',#143,.T.);
#93=FACE_OUTER_BOUND('',#144,.T.);
#94=FACE_OUTER_BOUND('',#145,.T.);
#95=FACE_OUTER_BOUND('',#146,.T.);
#96=FACE_OUTER_BOUND('',#147,.T.);
#97=FACE_OUTER_BOUND('',#148,.T.);
#98=FACE_OUTER_BOUND('',#149,.T.);
#99=FACE_OUTER_BOUND('',#150,.T.);
#100=FACE_OUTER_BOUND('',#151,.T.);
#101=FACE_OUTER_BOUND('',#152,.T.);
#102=FACE_OUTER_BOUND('',#153,.T.);
#103=FACE_OUTER_BOUND('',#154,.T.);
#104=FACE_OUTER_BOUND('',#155,.T.);
#105=FACE_OUTER_BOUND('',#156,.T.);
#106=FACE_OUTER_BOUND('',#157,.T.);
#107=FACE_OUTER_BOUND('',#158,.T.);
#108=FACE_OUTER_BOUND('',#159,.T.);
#109=FACE_OUTER_BOUND('',#160,.T.);
#110=FACE_OUTER_BOUND('',#161,.T.);
#111=FACE_OUTER_BOUND('',#162,.T.);
#112=FACE_OUTER_BOUND('',#163,.T.);
#113=FACE_OUTER_BOUND('',#164,.T.);
#114=FACE_OUTER_BOUND('',#165,.T.);
#115=EDGE_LOOP('',(#601,#602,#603,#604));
#116=EDGE_LOOP('',(#605,#606,#607,#608));
#117=EDGE_LOOP('',(#609,#610,#611,#612));
#118=EDGE_LOOP('',(#613,#614,#615,#616));
#119=EDGE_LOOP('',(#617,#618,#619,#620));
#120=EDGE_LOOP('',(#621,#622,#623,#624));
#121=EDGE_LOOP('',(#625,#626,#627,#628,#629,#630,#631,#632,#633,#634,#635,
#636,#637,#638,#639,#640,#641,#642,#643,#644,#645,#646,#647,#648,#649,#650,
#651,#652,#653,#654,#655));
#122=EDGE_LOOP('',(#656));
#123=EDGE_LOOP('',(#657));
#124=EDGE_LOOP('',(#658));
#125=EDGE_LOOP('',(#659));
#126=EDGE_LOOP('',(#660,#661,#662,#663,#664));
#127=EDGE_LOOP('',(#665));
#128=EDGE_LOOP('',(#666,#667,#668,#669));
#129=EDGE_LOOP('',(#670,#671,#672,#673));
#130=EDGE_LOOP('',(#674,#675,#676,#677));
#131=EDGE_LOOP('',(#678,#679,#680,#681));
#132=EDGE_LOOP('',(#682,#683,#684,#685));
#133=EDGE_LOOP('',(#686,#687,#688,#689));
#134=EDGE_LOOP('',(#690,#691,#692,#693));
#135=EDGE_LOOP('',(#694,#695,#696,#697));
#136=EDGE_LOOP('',(#698,#699,#700,#701));
#137=EDGE_LOOP('',(#702,#703,#704,#705));
#138=EDGE_LOOP('',(#706,#707,#708,#709));
#139=EDGE_LOOP('',(#710,#711,#712,#713));
#140=EDGE_LOOP('',(#714,#715,#716,#717));
#141=EDGE_LOOP('',(#718,#719,#720,#721));
#142=EDGE_LOOP('',(#722,#723,#724,#725));
#143=EDGE_LOOP('',(#726,#727,#728,#729));
#144=EDGE_LOOP('',(#730,#731,#732,#733));
#145=EDGE_LOOP('',(#734,#735,#736,#737));
#146=EDGE_LOOP('',(#738,#739,#740,#741));
#147=EDGE_LOOP('',(#742,#743,#744,#745));
#148=EDGE_LOOP('',(#746,#747,#748,#749));
#149=EDGE_LOOP('',(#750,#751,#752,#753));
#150=EDGE_LOOP('',(#754,#755,#756,#757));
#151=EDGE_LOOP('',(#758,#759,#760,#761));
#152=EDGE_LOOP('',(#762,#763,#764,#765));
#153=EDGE_LOOP('',(#766,#767,#768,#769));
#154=EDGE_LOOP('',(#770,#771,#772,#773));
#155=EDGE_LOOP('',(#774,#775,#776,#777));
#156=EDGE_LOOP('',(#778,#779,#780,#781));
#157=EDGE_LOOP('',(#782,#783,#784,#785));
#158=EDGE_LOOP('',(#786,#787,#788,#789));
#159=EDGE_LOOP('',(#790,#791,#792,#793));
#160=EDGE_LOOP('',(#794,#795,#796,#797));
#161=EDGE_LOOP('',(#798,#799,#800,#801));
#162=EDGE_LOOP('',(#802,#803,#804,#805));
#163=EDGE_LOOP('',(#806,#807,#808,#809));
#164=EDGE_LOOP('',(#810,#811,#812,#813));
#165=EDGE_LOOP('',(#814,#815,#816,#817,#818,#819,#820,#821,#822,#823,#824,
#825,#826,#827,#828,#829,#830,#831,#832,#833,#834,#835,#836,#837,#838,#839,
#840,#841,#842,#843,#844));
#166=EDGE_LOOP('',(#845));
#167=EDGE_LOOP('',(#846));
#168=EDGE_LOOP('',(#847));
#169=EDGE_LOOP('',(#848,#849,#850,#851,#852));
#170=EDGE_LOOP('',(#853));
#171=EDGE_LOOP('',(#854));
#172=LINE('',#1245,#263);
#173=LINE('',#1249,#264);
#174=LINE('',#1255,#265);
#175=LINE('',#1259,#266);
#176=LINE('',#1266,#267);
#177=LINE('',#1269,#268);
#178=LINE('',#1272,#269);
#179=LINE('',#1274,#270);
#180=LINE('',#1275,#271);
#181=LINE('',#1278,#272);
#182=LINE('',#1282,#273);
#183=LINE('',#1286,#274);
#184=LINE('',#1290,#275);
#185=LINE('',#1294,#276);
#186=LINE('',#1298,#277);
#187=LINE('',#1300,#278);
#188=LINE('',#1302,#279);
#189=LINE('',#1304,#280);
#190=LINE('',#1308,#281);
#191=LINE('',#1312,#282);
#192=LINE('',#1316,#283);
#193=LINE('',#1320,#284);
#194=LINE('',#1322,#285);
#195=LINE('',#1324,#286);
#196=LINE('',#1328,#287);
#197=LINE('',#1332,#288);
#198=LINE('',#1333,#289);
#199=LINE('',#1340,#290);
#200=LINE('',#1342,#291);
#201=LINE('',#1344,#292);
#202=LINE('',#1346,#293);
#203=LINE('',#1347,#294);
#204=LINE('',#1354,#295);
#205=LINE('',#1355,#296);
#206=LINE('',#1358,#297);
#207=LINE('',#1359,#298);
#208=LINE('',#1363,#299);
#209=LINE('',#1366,#300);
#210=LINE('',#1367,#301);
#211=LINE('',#1372,#302);
#212=LINE('',#1373,#303);
#213=LINE('',#1376,#304);
#214=LINE('',#1377,#305);
#215=LINE('',#1381,#306);
#216=LINE('',#1384,#307);
#217=LINE('',#1385,#308);
#218=LINE('',#1390,#309);
#219=LINE('',#1391,#310);
#220=LINE('',#1394,#311);
#221=LINE('',#1395,#312);
#222=LINE('',#1402,#313);
#223=LINE('',#1403,#314);
#224=LINE('',#1405,#315);
#225=LINE('',#1410,#316);
#226=LINE('',#1411,#317);
#227=LINE('',#1414,#318);
#228=LINE('',#1415,#319);
#229=LINE('',#1418,#320);
#230=LINE('',#1421,#321);
#231=LINE('',#1424,#322);
#232=LINE('',#1425,#323);
#233=LINE('',#1429,#324);
#234=LINE('',#1431,#325);
#235=LINE('',#1435,#326);
#236=LINE('',#1439,#327);
#237=LINE('',#1443,#328);
#238=LINE('',#1446,#329);
#239=LINE('',#1448,#330);
#240=LINE('',#1449,#331);
#241=LINE('',#1452,#332);
#242=LINE('',#1453,#333);
#243=LINE('',#1456,#334);
#244=LINE('',#1457,#335);
#245=LINE('',#1460,#336);
#246=LINE('',#1461,#337);
#247=LINE('',#1463,#338);
#248=LINE('',#1467,#339);
#249=LINE('',#1470,#340);
#250=LINE('',#1471,#341);
#251=LINE('',#1474,#342);
#252=LINE('',#1475,#343);
#253=LINE('',#1478,#344);
#254=LINE('',#1479,#345);
#255=LINE('',#1481,#346);
#256=LINE('',#1484,#347);
#257=LINE('',#1485,#348);
#258=LINE('',#1487,#349);
#259=LINE('',#1490,#350);
#260=LINE('',#1491,#351);
#261=LINE('',#1493,#352);
#262=LINE('',#1495,#353);
#263=VECTOR('',#991,1.2);
#264=VECTOR('',#996,0.9);
#265=VECTOR('',#1003,1.2);
#266=VECTOR('',#1008,0.9);
#267=VECTOR('',#1015,10.);
#268=VECTOR('',#1018,10.);
#269=VECTOR('',#1021,10.);
#270=VECTOR('',#1022,10.);
#271=VECTOR('',#1023,10.);
#272=VECTOR('',#1026,10.);
#273=VECTOR('',#1029,10.);
#274=VECTOR('',#1032,10.);
#275=VECTOR('',#1035,10.);
#276=VECTOR('',#1038,10.);
#277=VECTOR('',#1041,10.);
#278=VECTOR('',#1042,10.);
#279=VECTOR('',#1043,10.);
#280=VECTOR('',#1044,10.);
#281=VECTOR('',#1047,10.);
#282=VECTOR('',#1050,10.);
#283=VECTOR('',#1053,10.);
#284=VECTOR('',#1056,10.);
#285=VECTOR('',#1057,10.);
#286=VECTOR('',#1058,10.);
#287=VECTOR('',#1061,10.);
#288=VECTOR('',#1064,10.);
#289=VECTOR('',#1065,10.);
#290=VECTOR('',#1070,10.);
#291=VECTOR('',#1071,10.);
#292=VECTOR('',#1072,10.);
#293=VECTOR('',#1073,10.);
#294=VECTOR('',#1074,10.);
#295=VECTOR('',#1081,10.);
#296=VECTOR('',#1082,10.);
#297=VECTOR('',#1085,10.);
#298=VECTOR('',#1086,10.);
#299=VECTOR('',#1091,10.);
#300=VECTOR('',#1094,10.);
#301=VECTOR('',#1095,10.);
#302=VECTOR('',#1100,10.);
#303=VECTOR('',#1101,10.);
#304=VECTOR('',#1104,10.);
#305=VECTOR('',#1105,10.);
#306=VECTOR('',#1110,10.);
#307=VECTOR('',#1113,10.);
#308=VECTOR('',#1114,10.);
#309=VECTOR('',#1119,10.);
#310=VECTOR('',#1120,10.);
#311=VECTOR('',#1123,10.);
#312=VECTOR('',#1124,10.);
#313=VECTOR('',#1133,10.);
#314=VECTOR('',#1134,10.);
#315=VECTOR('',#1137,10.);
#316=VECTOR('',#1142,10.);
#317=VECTOR('',#1143,10.);
#318=VECTOR('',#1146,10.);
#319=VECTOR('',#1147,10.);
#320=VECTOR('',#1150,10.);
#321=VECTOR('',#1153,10.);
#322=VECTOR('',#1156,10.);
#323=VECTOR('',#1157,10.);
#324=VECTOR('',#1162,10.);
#325=VECTOR('',#1165,10.);
#326=VECTOR('',#1170,10.);
#327=VECTOR('',#1175,1.25);
#328=VECTOR('',#1180,1.25);
#329=VECTOR('',#1183,10.);
#330=VECTOR('',#1184,10.);
#331=VECTOR('',#1185,10.);
#332=VECTOR('',#1188,10.);
#333=VECTOR('',#1189,10.);
#334=VECTOR('',#1192,10.);
#335=VECTOR('',#1193,10.);
#336=VECTOR('',#1196,10.);
#337=VECTOR('',#1197,10.);
#338=VECTOR('',#1200,10.);
#339=VECTOR('',#1205,1.25);
#340=VECTOR('',#1208,10.);
#341=VECTOR('',#1209,10.);
#342=VECTOR('',#1212,10.);
#343=VECTOR('',#1213,10.);
#344=VECTOR('',#1216,10.);
#345=VECTOR('',#1217,10.);
#346=VECTOR('',#1220,10.);
#347=VECTOR('',#1223,10.);
#348=VECTOR('',#1224,10.);
#349=VECTOR('',#1227,10.);
#350=VECTOR('',#1230,10.);
#351=VECTOR('',#1231,10.);
#352=VECTOR('',#1234,10.);
#353=VECTOR('',#1237,10.);
#354=CIRCLE('',#905,1.5);
#355=CIRCLE('',#906,0.9);
#356=CIRCLE('',#908,0.9);
#357=CIRCLE('',#910,1.5);
#358=CIRCLE('',#911,0.9);
#359=CIRCLE('',#913,0.9);
#360=CIRCLE('',#915,2.);
#361=CIRCLE('',#916,2.);
#362=CIRCLE('',#919,2.);
#363=CIRCLE('',#920,2.);
#364=CIRCLE('',#921,2.);
#365=CIRCLE('',#922,2.);
#366=CIRCLE('',#923,2.);
#367=CIRCLE('',#924,2.);
#368=CIRCLE('',#925,2.);
#369=CIRCLE('',#926,2.);
#370=CIRCLE('',#927,2.);
#371=CIRCLE('',#928,2.);
#372=CIRCLE('',#929,2.);
#373=CIRCLE('',#930,1.25);
#374=CIRCLE('',#931,1.25);
#375=CIRCLE('',#932,1.25);
#376=CIRCLE('',#934,2.);
#377=CIRCLE('',#937,2.);
#378=CIRCLE('',#940,2.);
#379=CIRCLE('',#943,2.);
#380=CIRCLE('',#946,2.);
#381=CIRCLE('',#949,2.);
#382=CIRCLE('',#951,2.);
#383=CIRCLE('',#954,2.);
#384=CIRCLE('',#957,2.);
#385=CIRCLE('',#960,2.);
#386=CIRCLE('',#963,2.);
#387=CIRCLE('',#965,1.25);
#388=CIRCLE('',#967,1.25);
#389=CIRCLE('',#974,1.25);
#390=VERTEX_POINT('',#1242);
#391=VERTEX_POINT('',#1244);
#392=VERTEX_POINT('',#1248);
#393=VERTEX_POINT('',#1252);
#394=VERTEX_POINT('',#1254);
#395=VERTEX_POINT('',#1258);
#396=VERTEX_POINT('',#1262);
#397=VERTEX_POINT('',#1263);
#398=VERTEX_POINT('',#1265);
#399=VERTEX_POINT('',#1267);
#400=VERTEX_POINT('',#1271);
#401=VERTEX_POINT('',#1273);
#402=VERTEX_POINT('',#1277);
#403=VERTEX_POINT('',#1279);
#404=VERTEX_POINT('',#1281);
#405=VERTEX_POINT('',#1283);
#406=VERTEX_POINT('',#1285);
#407=VERTEX_POINT('',#1287);
#408=VERTEX_POINT('',#1289);
#409=VERTEX_POINT('',#1291);
#410=VERTEX_POINT('',#1293);
#411=VERTEX_POINT('',#1295);
#412=VERTEX_POINT('',#1297);
#413=VERTEX_POINT('',#1299);
#414=VERTEX_POINT('',#1301);
#415=VERTEX_POINT('',#1303);
#416=VERTEX_POINT('',#1305);
#417=VERTEX_POINT('',#1307);
#418=VERTEX_POINT('',#1309);
#419=VERTEX_POINT('',#1311);
#420=VERTEX_POINT('',#1313);
#421=VERTEX_POINT('',#1315);
#422=VERTEX_POINT('',#1317);
#423=VERTEX_POINT('',#1319);
#424=VERTEX_POINT('',#1321);
#425=VERTEX_POINT('',#1323);
#426=VERTEX_POINT('',#1325);
#427=VERTEX_POINT('',#1327);
#428=VERTEX_POINT('',#1329);
#429=VERTEX_POINT('',#1331);
#430=VERTEX_POINT('',#1334);
#431=VERTEX_POINT('',#1336);
#432=VERTEX_POINT('',#1338);
#433=VERTEX_POINT('',#1339);
#434=VERTEX_POINT('',#1341);
#435=VERTEX_POINT('',#1343);
#436=VERTEX_POINT('',#1345);
#437=VERTEX_POINT('',#1348);
#438=VERTEX_POINT('',#1351);
#439=VERTEX_POINT('',#1352);
#440=VERTEX_POINT('',#1357);
#441=VERTEX_POINT('',#1361);
#442=VERTEX_POINT('',#1365);
#443=VERTEX_POINT('',#1369);
#444=VERTEX_POINT('',#1370);
#445=VERTEX_POINT('',#1375);
#446=VERTEX_POINT('',#1379);
#447=VERTEX_POINT('',#1383);
#448=VERTEX_POINT('',#1387);
#449=VERTEX_POINT('',#1388);
#450=VERTEX_POINT('',#1393);
#451=VERTEX_POINT('',#1399);
#452=VERTEX_POINT('',#1400);
#453=VERTEX_POINT('',#1407);
#454=VERTEX_POINT('',#1408);
#455=VERTEX_POINT('',#1413);
#456=VERTEX_POINT('',#1417);
#457=VERTEX_POINT('',#1419);
#458=VERTEX_POINT('',#1423);
#459=VERTEX_POINT('',#1427);
#460=VERTEX_POINT('',#1433);
#461=VERTEX_POINT('',#1437);
#462=VERTEX_POINT('',#1441);
#463=VERTEX_POINT('',#1445);
#464=VERTEX_POINT('',#1447);
#465=VERTEX_POINT('',#1451);
#466=VERTEX_POINT('',#1455);
#467=VERTEX_POINT('',#1459);
#468=VERTEX_POINT('',#1465);
#469=VERTEX_POINT('',#1469);
#470=VERTEX_POINT('',#1473);
#471=VERTEX_POINT('',#1477);
#472=VERTEX_POINT('',#1483);
#473=VERTEX_POINT('',#1489);
#474=EDGE_CURVE('',#390,#390,#354,.T.);
#475=EDGE_CURVE('',#390,#391,#172,.T.);
#476=EDGE_CURVE('',#391,#391,#355,.T.);
#477=EDGE_CURVE('',#391,#392,#173,.T.);
#478=EDGE_CURVE('',#392,#392,#356,.T.);
#479=EDGE_CURVE('',#393,#393,#357,.T.);
#480=EDGE_CURVE('',#393,#394,#174,.T.);
#481=EDGE_CURVE('',#394,#394,#358,.T.);
#482=EDGE_CURVE('',#394,#395,#175,.T.);
#483=EDGE_CURVE('',#395,#395,#359,.T.);
#484=EDGE_CURVE('',#396,#397,#360,.T.);
#485=EDGE_CURVE('',#397,#398,#176,.T.);
#486=EDGE_CURVE('',#398,#399,#361,.T.);
#487=EDGE_CURVE('',#399,#396,#177,.T.);
#488=EDGE_CURVE('',#399,#400,#178,.T.);
#489=EDGE_CURVE('',#400,#401,#179,.T.);
#490=EDGE_CURVE('',#396,#401,#180,.T.);
#491=EDGE_CURVE('',#402,#398,#181,.T.);
#492=EDGE_CURVE('',#403,#402,#362,.T.);
#493=EDGE_CURVE('',#404,#403,#182,.T.);
#494=EDGE_CURVE('',#405,#404,#363,.T.);
#495=EDGE_CURVE('',#406,#405,#183,.T.);
#496=EDGE_CURVE('',#407,#406,#364,.T.);
#497=EDGE_CURVE('',#407,#408,#184,.T.);
#498=EDGE_CURVE('',#409,#408,#365,.T.);
#499=EDGE_CURVE('',#410,#409,#185,.T.);
#500=EDGE_CURVE('',#411,#410,#366,.T.);
#501=EDGE_CURVE('',#412,#411,#186,.T.);
#502=EDGE_CURVE('',#413,#412,#187,.T.);
#503=EDGE_CURVE('',#414,#413,#188,.T.);
#504=EDGE_CURVE('',#414,#415,#189,.T.);
#505=EDGE_CURVE('',#416,#415,#367,.T.);
#506=EDGE_CURVE('',#416,#417,#190,.T.);
#507=EDGE_CURVE('',#418,#417,#368,.T.);
#508=EDGE_CURVE('',#418,#419,#191,.T.);
#509=EDGE_CURVE('',#420,#419,#369,.T.);
#510=EDGE_CURVE('',#420,#421,#192,.T.);
#511=EDGE_CURVE('',#422,#421,#370,.T.);
#512=EDGE_CURVE('',#422,#423,#193,.T.);
#513=EDGE_CURVE('',#424,#423,#194,.T.);
#514=EDGE_CURVE('',#424,#425,#195,.T.);
#515=EDGE_CURVE('',#426,#425,#371,.T.);
#516=EDGE_CURVE('',#426,#427,#196,.T.);
#517=EDGE_CURVE('',#428,#427,#372,.T.);
#518=EDGE_CURVE('',#428,#429,#197,.T.);
#519=EDGE_CURVE('',#400,#429,#198,.T.);
#520=EDGE_CURVE('',#430,#430,#373,.T.);
#521=EDGE_CURVE('',#431,#431,#374,.T.);
#522=EDGE_CURVE('',#432,#433,#199,.T.);
#523=EDGE_CURVE('',#433,#434,#200,.T.);
#524=EDGE_CURVE('',#434,#435,#201,.T.);
#525=EDGE_CURVE('',#435,#436,#202,.T.);
#526=EDGE_CURVE('',#436,#432,#203,.T.);
#527=EDGE_CURVE('',#437,#437,#375,.T.);
#528=EDGE_CURVE('',#438,#439,#376,.T.);
#529=EDGE_CURVE('',#439,#428,#204,.T.);
#530=EDGE_CURVE('',#427,#438,#205,.T.);
#531=EDGE_CURVE('',#440,#426,#206,.T.);
#532=EDGE_CURVE('',#438,#440,#207,.T.);
#533=EDGE_CURVE('',#441,#440,#377,.T.);
#534=EDGE_CURVE('',#425,#441,#208,.T.);
#535=EDGE_CURVE('',#424,#442,#209,.T.);
#536=EDGE_CURVE('',#441,#442,#210,.T.);
#537=EDGE_CURVE('',#443,#444,#378,.T.);
#538=EDGE_CURVE('',#444,#422,#211,.T.);
#539=EDGE_CURVE('',#421,#443,#212,.T.);
#540=EDGE_CURVE('',#445,#420,#213,.T.);
#541=EDGE_CURVE('',#443,#445,#214,.T.);
#542=EDGE_CURVE('',#446,#445,#379,.T.);
#543=EDGE_CURVE('',#419,#446,#215,.T.);
#544=EDGE_CURVE('',#447,#418,#216,.T.);
#545=EDGE_CURVE('',#446,#447,#217,.T.);
#546=EDGE_CURVE('',#448,#449,#380,.T.);
#547=EDGE_CURVE('',#449,#416,#218,.T.);
#548=EDGE_CURVE('',#415,#448,#219,.T.);
#549=EDGE_CURVE('',#450,#449,#220,.T.);
#550=EDGE_CURVE('',#417,#450,#221,.T.);
#551=EDGE_CURVE('',#450,#447,#381,.T.);
#552=EDGE_CURVE('',#451,#452,#382,.T.);
#553=EDGE_CURVE('',#452,#403,#222,.T.);
#554=EDGE_CURVE('',#402,#451,#223,.T.);
#555=EDGE_CURVE('',#451,#397,#224,.T.);
#556=EDGE_CURVE('',#453,#454,#383,.T.);
#557=EDGE_CURVE('',#454,#411,#225,.T.);
#558=EDGE_CURVE('',#410,#453,#226,.T.);
#559=EDGE_CURVE('',#455,#409,#227,.T.);
#560=EDGE_CURVE('',#453,#455,#228,.T.);
#561=EDGE_CURVE('',#406,#456,#229,.T.);
#562=EDGE_CURVE('',#456,#457,#384,.T.);
#563=EDGE_CURVE('',#457,#407,#230,.T.);
#564=EDGE_CURVE('',#458,#405,#231,.T.);
#565=EDGE_CURVE('',#456,#458,#232,.T.);
#566=EDGE_CURVE('',#459,#455,#385,.T.);
#567=EDGE_CURVE('',#408,#459,#233,.T.);
#568=EDGE_CURVE('',#459,#457,#234,.T.);
#569=EDGE_CURVE('',#460,#458,#386,.T.);
#570=EDGE_CURVE('',#404,#460,#235,.T.);
#571=EDGE_CURVE('',#461,#461,#387,.T.);
#572=EDGE_CURVE('',#461,#430,#236,.T.);
#573=EDGE_CURVE('',#462,#462,#388,.T.);
#574=EDGE_CURVE('',#462,#431,#237,.T.);
#575=EDGE_CURVE('',#433,#463,#238,.T.);
#576=EDGE_CURVE('',#464,#463,#239,.T.);
#577=EDGE_CURVE('',#434,#464,#240,.T.);
#578=EDGE_CURVE('',#465,#464,#241,.T.);
#579=EDGE_CURVE('',#435,#465,#242,.T.);
#580=EDGE_CURVE('',#466,#465,#243,.T.);
#581=EDGE_CURVE('',#436,#466,#244,.T.);
#582=EDGE_CURVE('',#467,#466,#245,.T.);
#583=EDGE_CURVE('',#432,#467,#246,.T.);
#584=EDGE_CURVE('',#463,#467,#247,.T.);
#585=EDGE_CURVE('',#468,#468,#389,.T.);
#586=EDGE_CURVE('',#468,#437,#248,.T.);
#587=EDGE_CURVE('',#469,#454,#249,.T.);
#588=EDGE_CURVE('',#412,#469,#250,.T.);
#589=EDGE_CURVE('',#470,#469,#251,.T.);
#590=EDGE_CURVE('',#413,#470,#252,.T.);
#591=EDGE_CURVE('',#471,#470,#253,.T.);
#592=EDGE_CURVE('',#414,#471,#254,.T.);
#593=EDGE_CURVE('',#448,#471,#255,.T.);
#594=EDGE_CURVE('',#472,#444,#256,.T.);
#595=EDGE_CURVE('',#423,#472,#257,.T.);
#596=EDGE_CURVE('',#442,#472,#258,.T.);
#597=EDGE_CURVE('',#473,#439,#259,.T.);
#598=EDGE_CURVE('',#429,#473,#260,.T.);
#599=EDGE_CURVE('',#401,#473,#261,.T.);
#600=EDGE_CURVE('',#460,#452,#262,.T.);
#601=ORIENTED_EDGE('',*,*,#474,.F.);
#602=ORIENTED_EDGE('',*,*,#475,.T.);
#603=ORIENTED_EDGE('',*,*,#476,.T.);
#604=ORIENTED_EDGE('',*,*,#475,.F.);
#605=ORIENTED_EDGE('',*,*,#476,.F.);
#606=ORIENTED_EDGE('',*,*,#477,.T.);
#607=ORIENTED_EDGE('',*,*,#478,.F.);
#608=ORIENTED_EDGE('',*,*,#477,.F.);
#609=ORIENTED_EDGE('',*,*,#479,.F.);
#610=ORIENTED_EDGE('',*,*,#480,.T.);
#611=ORIENTED_EDGE('',*,*,#481,.T.);
#612=ORIENTED_EDGE('',*,*,#480,.F.);
#613=ORIENTED_EDGE('',*,*,#481,.F.);
#614=ORIENTED_EDGE('',*,*,#482,.T.);
#615=ORIENTED_EDGE('',*,*,#483,.F.);
#616=ORIENTED_EDGE('',*,*,#482,.F.);
#617=ORIENTED_EDGE('',*,*,#484,.T.);
#618=ORIENTED_EDGE('',*,*,#485,.T.);
#619=ORIENTED_EDGE('',*,*,#486,.T.);
#620=ORIENTED_EDGE('',*,*,#487,.T.);
#621=ORIENTED_EDGE('',*,*,#487,.F.);
#622=ORIENTED_EDGE('',*,*,#488,.T.);
#623=ORIENTED_EDGE('',*,*,#489,.T.);
#624=ORIENTED_EDGE('',*,*,#490,.F.);
#625=ORIENTED_EDGE('',*,*,#486,.F.);
#626=ORIENTED_EDGE('',*,*,#491,.F.);
#627=ORIENTED_EDGE('',*,*,#492,.F.);
#628=ORIENTED_EDGE('',*,*,#493,.F.);
#629=ORIENTED_EDGE('',*,*,#494,.F.);
#630=ORIENTED_EDGE('',*,*,#495,.F.);
#631=ORIENTED_EDGE('',*,*,#496,.F.);
#632=ORIENTED_EDGE('',*,*,#497,.T.);
#633=ORIENTED_EDGE('',*,*,#498,.F.);
#634=ORIENTED_EDGE('',*,*,#499,.F.);
#635=ORIENTED_EDGE('',*,*,#500,.F.);
#636=ORIENTED_EDGE('',*,*,#501,.F.);
#637=ORIENTED_EDGE('',*,*,#502,.F.);
#638=ORIENTED_EDGE('',*,*,#503,.F.);
#639=ORIENTED_EDGE('',*,*,#504,.T.);
#640=ORIENTED_EDGE('',*,*,#505,.F.);
#641=ORIENTED_EDGE('',*,*,#506,.T.);
#642=ORIENTED_EDGE('',*,*,#507,.F.);
#643=ORIENTED_EDGE('',*,*,#508,.T.);
#644=ORIENTED_EDGE('',*,*,#509,.F.);
#645=ORIENTED_EDGE('',*,*,#510,.T.);
#646=ORIENTED_EDGE('',*,*,#511,.F.);
#647=ORIENTED_EDGE('',*,*,#512,.T.);
#648=ORIENTED_EDGE('',*,*,#513,.F.);
#649=ORIENTED_EDGE('',*,*,#514,.T.);
#650=ORIENTED_EDGE('',*,*,#515,.F.);
#651=ORIENTED_EDGE('',*,*,#516,.T.);
#652=ORIENTED_EDGE('',*,*,#517,.F.);
#653=ORIENTED_EDGE('',*,*,#518,.T.);
#654=ORIENTED_EDGE('',*,*,#519,.F.);
#655=ORIENTED_EDGE('',*,*,#488,.F.);
#656=ORIENTED_EDGE('',*,*,#474,.T.);
#657=ORIENTED_EDGE('',*,*,#479,.T.);
#658=ORIENTED_EDGE('',*,*,#520,.T.);
#659=ORIENTED_EDGE('',*,*,#521,.T.);
#660=ORIENTED_EDGE('',*,*,#522,.T.);
#661=ORIENTED_EDGE('',*,*,#523,.T.);
#662=ORIENTED_EDGE('',*,*,#524,.T.);
#663=ORIENTED_EDGE('',*,*,#525,.T.);
#664=ORIENTED_EDGE('',*,*,#526,.T.);
#665=ORIENTED_EDGE('',*,*,#527,.T.);
#666=ORIENTED_EDGE('',*,*,#528,.T.);
#667=ORIENTED_EDGE('',*,*,#529,.T.);
#668=ORIENTED_EDGE('',*,*,#517,.T.);
#669=ORIENTED_EDGE('',*,*,#530,.T.);
#670=ORIENTED_EDGE('',*,*,#530,.F.);
#671=ORIENTED_EDGE('',*,*,#516,.F.);
#672=ORIENTED_EDGE('',*,*,#531,.F.);
#673=ORIENTED_EDGE('',*,*,#532,.F.);
#674=ORIENTED_EDGE('',*,*,#533,.T.);
#675=ORIENTED_EDGE('',*,*,#531,.T.);
#676=ORIENTED_EDGE('',*,*,#515,.T.);
#677=ORIENTED_EDGE('',*,*,#534,.T.);
#678=ORIENTED_EDGE('',*,*,#534,.F.);
#679=ORIENTED_EDGE('',*,*,#514,.F.);
#680=ORIENTED_EDGE('',*,*,#535,.T.);
#681=ORIENTED_EDGE('',*,*,#536,.F.);
#682=ORIENTED_EDGE('',*,*,#537,.T.);
#683=ORIENTED_EDGE('',*,*,#538,.T.);
#684=ORIENTED_EDGE('',*,*,#511,.T.);
#685=ORIENTED_EDGE('',*,*,#539,.T.);
#686=ORIENTED_EDGE('',*,*,#539,.F.);
#687=ORIENTED_EDGE('',*,*,#510,.F.);
#688=ORIENTED_EDGE('',*,*,#540,.F.);
#689=ORIENTED_EDGE('',*,*,#541,.F.);
#690=ORIENTED_EDGE('',*,*,#542,.T.);
#691=ORIENTED_EDGE('',*,*,#540,.T.);
#692=ORIENTED_EDGE('',*,*,#509,.T.);
#693=ORIENTED_EDGE('',*,*,#543,.T.);
#694=ORIENTED_EDGE('',*,*,#543,.F.);
#695=ORIENTED_EDGE('',*,*,#508,.F.);
#696=ORIENTED_EDGE('',*,*,#544,.F.);
#697=ORIENTED_EDGE('',*,*,#545,.F.);
#698=ORIENTED_EDGE('',*,*,#546,.T.);
#699=ORIENTED_EDGE('',*,*,#547,.T.);
#700=ORIENTED_EDGE('',*,*,#505,.T.);
#701=ORIENTED_EDGE('',*,*,#548,.T.);
#702=ORIENTED_EDGE('',*,*,#547,.F.);
#703=ORIENTED_EDGE('',*,*,#549,.F.);
#704=ORIENTED_EDGE('',*,*,#550,.F.);
#705=ORIENTED_EDGE('',*,*,#506,.F.);
#706=ORIENTED_EDGE('',*,*,#551,.T.);
#707=ORIENTED_EDGE('',*,*,#544,.T.);
#708=ORIENTED_EDGE('',*,*,#507,.T.);
#709=ORIENTED_EDGE('',*,*,#550,.T.);
#710=ORIENTED_EDGE('',*,*,#552,.T.);
#711=ORIENTED_EDGE('',*,*,#553,.T.);
#712=ORIENTED_EDGE('',*,*,#492,.T.);
#713=ORIENTED_EDGE('',*,*,#554,.T.);
#714=ORIENTED_EDGE('',*,*,#485,.F.);
#715=ORIENTED_EDGE('',*,*,#555,.F.);
#716=ORIENTED_EDGE('',*,*,#554,.F.);
#717=ORIENTED_EDGE('',*,*,#491,.T.);
#718=ORIENTED_EDGE('',*,*,#556,.T.);
#719=ORIENTED_EDGE('',*,*,#557,.T.);
#720=ORIENTED_EDGE('',*,*,#500,.T.);
#721=ORIENTED_EDGE('',*,*,#558,.T.);
#722=ORIENTED_EDGE('',*,*,#558,.F.);
#723=ORIENTED_EDGE('',*,*,#499,.T.);
#724=ORIENTED_EDGE('',*,*,#559,.F.);
#725=ORIENTED_EDGE('',*,*,#560,.F.);
#726=ORIENTED_EDGE('',*,*,#496,.T.);
#727=ORIENTED_EDGE('',*,*,#561,.T.);
#728=ORIENTED_EDGE('',*,*,#562,.T.);
#729=ORIENTED_EDGE('',*,*,#563,.T.);
#730=ORIENTED_EDGE('',*,*,#561,.F.);
#731=ORIENTED_EDGE('',*,*,#495,.T.);
#732=ORIENTED_EDGE('',*,*,#564,.F.);
#733=ORIENTED_EDGE('',*,*,#565,.F.);
#734=ORIENTED_EDGE('',*,*,#566,.T.);
#735=ORIENTED_EDGE('',*,*,#559,.T.);
#736=ORIENTED_EDGE('',*,*,#498,.T.);
#737=ORIENTED_EDGE('',*,*,#567,.T.);
#738=ORIENTED_EDGE('',*,*,#563,.F.);
#739=ORIENTED_EDGE('',*,*,#568,.F.);
#740=ORIENTED_EDGE('',*,*,#567,.F.);
#741=ORIENTED_EDGE('',*,*,#497,.F.);
#742=ORIENTED_EDGE('',*,*,#569,.T.);
#743=ORIENTED_EDGE('',*,*,#564,.T.);
#744=ORIENTED_EDGE('',*,*,#494,.T.);
#745=ORIENTED_EDGE('',*,*,#570,.T.);
#746=ORIENTED_EDGE('',*,*,#571,.F.);
#747=ORIENTED_EDGE('',*,*,#572,.T.);
#748=ORIENTED_EDGE('',*,*,#520,.F.);
#749=ORIENTED_EDGE('',*,*,#572,.F.);
#750=ORIENTED_EDGE('',*,*,#573,.F.);
#751=ORIENTED_EDGE('',*,*,#574,.T.);
#752=ORIENTED_EDGE('',*,*,#521,.F.);
#753=ORIENTED_EDGE('',*,*,#574,.F.);
#754=ORIENTED_EDGE('',*,*,#523,.F.);
#755=ORIENTED_EDGE('',*,*,#575,.T.);
#756=ORIENTED_EDGE('',*,*,#576,.F.);
#757=ORIENTED_EDGE('',*,*,#577,.F.);
#758=ORIENTED_EDGE('',*,*,#524,.F.);
#759=ORIENTED_EDGE('',*,*,#577,.T.);
#760=ORIENTED_EDGE('',*,*,#578,.F.);
#761=ORIENTED_EDGE('',*,*,#579,.F.);
#762=ORIENTED_EDGE('',*,*,#525,.F.);
#763=ORIENTED_EDGE('',*,*,#579,.T.);
#764=ORIENTED_EDGE('',*,*,#580,.F.);
#765=ORIENTED_EDGE('',*,*,#581,.F.);
#766=ORIENTED_EDGE('',*,*,#526,.F.);
#767=ORIENTED_EDGE('',*,*,#581,.T.);
#768=ORIENTED_EDGE('',*,*,#582,.F.);
#769=ORIENTED_EDGE('',*,*,#583,.F.);
#770=ORIENTED_EDGE('',*,*,#522,.F.);
#771=ORIENTED_EDGE('',*,*,#583,.T.);
#772=ORIENTED_EDGE('',*,*,#584,.F.);
#773=ORIENTED_EDGE('',*,*,#575,.F.);
#774=ORIENTED_EDGE('',*,*,#585,.F.);
#775=ORIENTED_EDGE('',*,*,#586,.T.);
#776=ORIENTED_EDGE('',*,*,#527,.F.);
#777=ORIENTED_EDGE('',*,*,#586,.F.);
#778=ORIENTED_EDGE('',*,*,#557,.F.);
#779=ORIENTED_EDGE('',*,*,#587,.F.);
#780=ORIENTED_EDGE('',*,*,#588,.F.);
#781=ORIENTED_EDGE('',*,*,#501,.T.);
#782=ORIENTED_EDGE('',*,*,#502,.T.);
#783=ORIENTED_EDGE('',*,*,#588,.T.);
#784=ORIENTED_EDGE('',*,*,#589,.F.);
#785=ORIENTED_EDGE('',*,*,#590,.F.);
#786=ORIENTED_EDGE('',*,*,#503,.T.);
#787=ORIENTED_EDGE('',*,*,#590,.T.);
#788=ORIENTED_EDGE('',*,*,#591,.F.);
#789=ORIENTED_EDGE('',*,*,#592,.F.);
#790=ORIENTED_EDGE('',*,*,#548,.F.);
#791=ORIENTED_EDGE('',*,*,#504,.F.);
#792=ORIENTED_EDGE('',*,*,#592,.T.);
#793=ORIENTED_EDGE('',*,*,#593,.F.);
#794=ORIENTED_EDGE('',*,*,#538,.F.);
#795=ORIENTED_EDGE('',*,*,#594,.F.);
#796=ORIENTED_EDGE('',*,*,#595,.F.);
#797=ORIENTED_EDGE('',*,*,#512,.F.);
#798=ORIENTED_EDGE('',*,*,#513,.T.);
#799=ORIENTED_EDGE('',*,*,#595,.T.);
#800=ORIENTED_EDGE('',*,*,#596,.F.);
#801=ORIENTED_EDGE('',*,*,#535,.F.);
#802=ORIENTED_EDGE('',*,*,#529,.F.);
#803=ORIENTED_EDGE('',*,*,#597,.F.);
#804=ORIENTED_EDGE('',*,*,#598,.F.);
#805=ORIENTED_EDGE('',*,*,#518,.F.);
#806=ORIENTED_EDGE('',*,*,#519,.T.);
#807=ORIENTED_EDGE('',*,*,#598,.T.);
#808=ORIENTED_EDGE('',*,*,#599,.F.);
#809=ORIENTED_EDGE('',*,*,#489,.F.);
#810=ORIENTED_EDGE('',*,*,#553,.F.);
#811=ORIENTED_EDGE('',*,*,#600,.F.);
#812=ORIENTED_EDGE('',*,*,#570,.F.);
#813=ORIENTED_EDGE('',*,*,#493,.T.);
#814=ORIENTED_EDGE('',*,*,#484,.F.);
#815=ORIENTED_EDGE('',*,*,#490,.T.);
#816=ORIENTED_EDGE('',*,*,#599,.T.);
#817=ORIENTED_EDGE('',*,*,#597,.T.);
#818=ORIENTED_EDGE('',*,*,#528,.F.);
#819=ORIENTED_EDGE('',*,*,#532,.T.);
#820=ORIENTED_EDGE('',*,*,#533,.F.);
#821=ORIENTED_EDGE('',*,*,#536,.T.);
#822=ORIENTED_EDGE('',*,*,#596,.T.);
#823=ORIENTED_EDGE('',*,*,#594,.T.);
#824=ORIENTED_EDGE('',*,*,#537,.F.);
#825=ORIENTED_EDGE('',*,*,#541,.T.);
#826=ORIENTED_EDGE('',*,*,#542,.F.);
#827=ORIENTED_EDGE('',*,*,#545,.T.);
#828=ORIENTED_EDGE('',*,*,#551,.F.);
#829=ORIENTED_EDGE('',*,*,#549,.T.);
#830=ORIENTED_EDGE('',*,*,#546,.F.);
#831=ORIENTED_EDGE('',*,*,#593,.T.);
#832=ORIENTED_EDGE('',*,*,#591,.T.);
#833=ORIENTED_EDGE('',*,*,#589,.T.);
#834=ORIENTED_EDGE('',*,*,#587,.T.);
#835=ORIENTED_EDGE('',*,*,#556,.F.);
#836=ORIENTED_EDGE('',*,*,#560,.T.);
#837=ORIENTED_EDGE('',*,*,#566,.F.);
#838=ORIENTED_EDGE('',*,*,#568,.T.);
#839=ORIENTED_EDGE('',*,*,#562,.F.);
#840=ORIENTED_EDGE('',*,*,#565,.T.);
#841=ORIENTED_EDGE('',*,*,#569,.F.);
#842=ORIENTED_EDGE('',*,*,#600,.T.);
#843=ORIENTED_EDGE('',*,*,#552,.F.);
#844=ORIENTED_EDGE('',*,*,#555,.T.);
#845=ORIENTED_EDGE('',*,*,#478,.T.);
#846=ORIENTED_EDGE('',*,*,#483,.T.);
#847=ORIENTED_EDGE('',*,*,#585,.T.);
#848=ORIENTED_EDGE('',*,*,#584,.T.);
#849=ORIENTED_EDGE('',*,*,#582,.T.);
#850=ORIENTED_EDGE('',*,*,#580,.T.);
#851=ORIENTED_EDGE('',*,*,#578,.T.);
#852=ORIENTED_EDGE('',*,*,#576,.T.);
#853=ORIENTED_EDGE('',*,*,#573,.T.);
#854=ORIENTED_EDGE('',*,*,#571,.T.);
#855=CONICAL_SURFACE('',#904,1.2,0.785398163397448);
#856=CONICAL_SURFACE('',#909,1.2,0.785398163397448);
#857=ADVANCED_FACE('',(#70),#855,.F.);
#858=ADVANCED_FACE('',(#71),#53,.F.);
#859=ADVANCED_FACE('',(#72),#856,.F.);
#860=ADVANCED_FACE('',(#73),#54,.F.);
#861=ADVANCED_FACE('',(#74),#55,.T.);
#862=ADVANCED_FACE('',(#75),#27,.T.);
#863=ADVANCED_FACE('',(#76,#15,#16,#17,#18,#19,#20),#28,.T.);
#864=ADVANCED_FACE('',(#77),#56,.T.);
#865=ADVANCED_FACE('',(#78),#29,.T.);
#866=ADVANCED_FACE('',(#79),#57,.T.);
#867=ADVANCED_FACE('',(#80),#30,.T.);
#868=ADVANCED_FACE('',(#81),#58,.T.);
#869=ADVANCED_FACE('',(#82),#31,.T.);
#870=ADVANCED_FACE('',(#83),#59,.T.);
#871=ADVANCED_FACE('',(#84),#32,.T.);
#872=ADVANCED_FACE('',(#85),#60,.T.);
#873=ADVANCED_FACE('',(#86),#33,.T.);
#874=ADVANCED_FACE('',(#87),#61,.T.);
#875=ADVANCED_FACE('',(#88),#62,.T.);
#876=ADVANCED_FACE('',(#89),#34,.T.);
#877=ADVANCED_FACE('',(#90),#63,.T.);
#878=ADVANCED_FACE('',(#91),#35,.T.);
#879=ADVANCED_FACE('',(#92),#64,.F.);
#880=ADVANCED_FACE('',(#93),#36,.T.);
#881=ADVANCED_FACE('',(#94),#65,.T.);
#882=ADVANCED_FACE('',(#95),#37,.T.);
#883=ADVANCED_FACE('',(#96),#66,.T.);
#884=ADVANCED_FACE('',(#97),#67,.F.);
#885=ADVANCED_FACE('',(#98),#68,.F.);
#886=ADVANCED_FACE('',(#99),#38,.T.);
#887=ADVANCED_FACE('',(#100),#39,.T.);
#888=ADVANCED_FACE('',(#101),#40,.T.);
#889=ADVANCED_FACE('',(#102),#41,.T.);
#890=ADVANCED_FACE('',(#103),#42,.T.);
#891=ADVANCED_FACE('',(#104),#69,.F.);
#892=ADVANCED_FACE('',(#105),#43,.T.);
#893=ADVANCED_FACE('',(#106),#44,.T.);
#894=ADVANCED_FACE('',(#107),#45,.T.);
#895=ADVANCED_FACE('',(#108),#46,.T.);
#896=ADVANCED_FACE('',(#109),#47,.T.);
#897=ADVANCED_FACE('',(#110),#48,.T.);
#898=ADVANCED_FACE('',(#111),#49,.T.);
#899=ADVANCED_FACE('',(#112),#50,.T.);
#900=ADVANCED_FACE('',(#113),#51,.T.);
#901=ADVANCED_FACE('',(#114,#21,#22,#23,#24,#25,#26),#52,.F.);
#902=CLOSED_SHELL('',(#857,#858,#859,#860,#861,#862,#863,#864,#865,#866,
#867,#868,#869,#870,#871,#872,#873,#874,#875,#876,#877,#878,#879,#880,#881,
#882,#883,#884,#885,#886,#887,#888,#889,#890,#891,#892,#893,#894,#895,#896,
#897,#898,#899,#900,#901));
#903=AXIS2_PLACEMENT_3D('',#1240,#985,#986);
#904=AXIS2_PLACEMENT_3D('',#1241,#987,#988);
#905=AXIS2_PLACEMENT_3D('',#1243,#989,#990);
#906=AXIS2_PLACEMENT_3D('',#1246,#992,#993);
#907=AXIS2_PLACEMENT_3D('',#1247,#994,#995);
#908=AXIS2_PLACEMENT_3D('',#1250,#997,#998);
#909=AXIS2_PLACEMENT_3D('',#1251,#999,#1000);
#910=AXIS2_PLACEMENT_3D('',#1253,#1001,#1002);
#911=AXIS2_PLACEMENT_3D('',#1256,#1004,#1005);
#912=AXIS2_PLACEMENT_3D('',#1257,#1006,#1007);
#913=AXIS2_PLACEMENT_3D('',#1260,#1009,#1010);
#914=AXIS2_PLACEMENT_3D('',#1261,#1011,#1012);
#915=AXIS2_PLACEMENT_3D('',#1264,#1013,#1014);
#916=AXIS2_PLACEMENT_3D('',#1268,#1016,#1017);
#917=AXIS2_PLACEMENT_3D('',#1270,#1019,#1020);
#918=AXIS2_PLACEMENT_3D('',#1276,#1024,#1025);
#919=AXIS2_PLACEMENT_3D('',#1280,#1027,#1028);
#920=AXIS2_PLACEMENT_3D('',#1284,#1030,#1031);
#921=AXIS2_PLACEMENT_3D('',#1288,#1033,#1034);
#922=AXIS2_PLACEMENT_3D('',#1292,#1036,#1037);
#923=AXIS2_PLACEMENT_3D('',#1296,#1039,#1040);
#924=AXIS2_PLACEMENT_3D('',#1306,#1045,#1046);
#925=AXIS2_PLACEMENT_3D('',#1310,#1048,#1049);
#926=AXIS2_PLACEMENT_3D('',#1314,#1051,#1052);
#927=AXIS2_PLACEMENT_3D('',#1318,#1054,#1055);
#928=AXIS2_PLACEMENT_3D('',#1326,#1059,#1060);
#929=AXIS2_PLACEMENT_3D('',#1330,#1062,#1063);
#930=AXIS2_PLACEMENT_3D('',#1335,#1066,#1067);
#931=AXIS2_PLACEMENT_3D('',#1337,#1068,#1069);
#932=AXIS2_PLACEMENT_3D('',#1349,#1075,#1076);
#933=AXIS2_PLACEMENT_3D('',#1350,#1077,#1078);
#934=AXIS2_PLACEMENT_3D('',#1353,#1079,#1080);
#935=AXIS2_PLACEMENT_3D('',#1356,#1083,#1084);
#936=AXIS2_PLACEMENT_3D('',#1360,#1087,#1088);
#937=AXIS2_PLACEMENT_3D('',#1362,#1089,#1090);
#938=AXIS2_PLACEMENT_3D('',#1364,#1092,#1093);
#939=AXIS2_PLACEMENT_3D('',#1368,#1096,#1097);
#940=AXIS2_PLACEMENT_3D('',#1371,#1098,#1099);
#941=AXIS2_PLACEMENT_3D('',#1374,#1102,#1103);
#942=AXIS2_PLACEMENT_3D('',#1378,#1106,#1107);
#943=AXIS2_PLACEMENT_3D('',#1380,#1108,#1109);
#944=AXIS2_PLACEMENT_3D('',#1382,#1111,#1112);
#945=AXIS2_PLACEMENT_3D('',#1386,#1115,#1116);
#946=AXIS2_PLACEMENT_3D('',#1389,#1117,#1118);
#947=AXIS2_PLACEMENT_3D('',#1392,#1121,#1122);
#948=AXIS2_PLACEMENT_3D('',#1396,#1125,#1126);
#949=AXIS2_PLACEMENT_3D('',#1397,#1127,#1128);
#950=AXIS2_PLACEMENT_3D('',#1398,#1129,#1130);
#951=AXIS2_PLACEMENT_3D('',#1401,#1131,#1132);
#952=AXIS2_PLACEMENT_3D('',#1404,#1135,#1136);
#953=AXIS2_PLACEMENT_3D('',#1406,#1138,#1139);
#954=AXIS2_PLACEMENT_3D('',#1409,#1140,#1141);
#955=AXIS2_PLACEMENT_3D('',#1412,#1144,#1145);
#956=AXIS2_PLACEMENT_3D('',#1416,#1148,#1149);
#957=AXIS2_PLACEMENT_3D('',#1420,#1151,#1152);
#958=AXIS2_PLACEMENT_3D('',#1422,#1154,#1155);
#959=AXIS2_PLACEMENT_3D('',#1426,#1158,#1159);
#960=AXIS2_PLACEMENT_3D('',#1428,#1160,#1161);
#961=AXIS2_PLACEMENT_3D('',#1430,#1163,#1164);
#962=AXIS2_PLACEMENT_3D('',#1432,#1166,#1167);
#963=AXIS2_PLACEMENT_3D('',#1434,#1168,#1169);
#964=AXIS2_PLACEMENT_3D('',#1436,#1171,#1172);
#965=AXIS2_PLACEMENT_3D('',#1438,#1173,#1174);
#966=AXIS2_PLACEMENT_3D('',#1440,#1176,#1177);
#967=AXIS2_PLACEMENT_3D('',#1442,#1178,#1179);
#968=AXIS2_PLACEMENT_3D('',#1444,#1181,#1182);
#969=AXIS2_PLACEMENT_3D('',#1450,#1186,#1187);
#970=AXIS2_PLACEMENT_3D('',#1454,#1190,#1191);
#971=AXIS2_PLACEMENT_3D('',#1458,#1194,#1195);
#972=AXIS2_PLACEMENT_3D('',#1462,#1198,#1199);
#973=AXIS2_PLACEMENT_3D('',#1464,#1201,#1202);
#974=AXIS2_PLACEMENT_3D('',#1466,#1203,#1204);
#975=AXIS2_PLACEMENT_3D('',#1468,#1206,#1207);
#976=AXIS2_PLACEMENT_3D('',#1472,#1210,#1211);
#977=AXIS2_PLACEMENT_3D('',#1476,#1214,#1215);
#978=AXIS2_PLACEMENT_3D('',#1480,#1218,#1219);
#979=AXIS2_PLACEMENT_3D('',#1482,#1221,#1222);
#980=AXIS2_PLACEMENT_3D('',#1486,#1225,#1226);
#981=AXIS2_PLACEMENT_3D('',#1488,#1228,#1229);
#982=AXIS2_PLACEMENT_3D('',#1492,#1232,#1233);
#983=AXIS2_PLACEMENT_3D('',#1494,#1235,#1236);
#984=AXIS2_PLACEMENT_3D('',#1496,#1238,#1239);
#985=DIRECTION('axis',(0.,0.,1.));
#986=DIRECTION('refdir',(1.,0.,0.));
#987=DIRECTION('center_axis',(0.,0.,1.));
#988=DIRECTION('ref_axis',(1.,0.,0.));
#989=DIRECTION('center_axis',(0.,0.,-1.));
#990=DIRECTION('ref_axis',(1.,0.,0.));
#991=DIRECTION('',(0.707106781186547,-8.65956056235493E-17,-0.707106781186548));
#992=DIRECTION('center_axis',(0.,0.,-1.));
#993=DIRECTION('ref_axis',(1.,0.,0.));
#994=DIRECTION('center_axis',(0.,0.,-1.));
#995=DIRECTION('ref_axis',(1.,0.,0.));
#996=DIRECTION('',(0.,0.,-1.));
#997=DIRECTION('center_axis',(0.,0.,1.));
#998=DIRECTION('ref_axis',(1.,0.,0.));
#999=DIRECTION('center_axis',(0.,0.,1.));
#1000=DIRECTION('ref_axis',(1.,0.,0.));
#1001=DIRECTION('center_axis',(0.,0.,-1.));
#1002=DIRECTION('ref_axis',(1.,0.,0.));
#1003=DIRECTION('',(0.707106781186547,-8.65956056235493E-17,-0.707106781186548));
#1004=DIRECTION('center_axis',(0.,0.,-1.));
#1005=DIRECTION('ref_axis',(1.,0.,0.));
#1006=DIRECTION('center_axis',(0.,0.,-1.));
#1007=DIRECTION('ref_axis',(1.,0.,0.));
#1008=DIRECTION('',(0.,0.,-1.));
#1009=DIRECTION('center_axis',(0.,0.,1.));
#1010=DIRECTION('ref_axis',(1.,0.,0.));
#1011=DIRECTION('center_axis',(0.,0.,-1.));
#1012=DIRECTION('ref_axis',(-0.707106781186541,-0.707106781186554,0.));
#1013=DIRECTION('center_axis',(0.,0.,1.));
#1014=DIRECTION('ref_axis',(-0.707106781186541,-0.707106781186554,0.));
#1015=DIRECTION('',(0.,0.,1.));
#1016=DIRECTION('center_axis',(0.,0.,-1.));
#1017=DIRECTION('ref_axis',(-0.707106781186541,-0.707106781186554,0.));
#1018=DIRECTION('',(0.,0.,-1.));
#1019=DIRECTION('center_axis',(-1.,0.,0.));
#1020=DIRECTION('ref_axis',(0.,1.,0.));
#1021=DIRECTION('',(0.,1.,0.));
#1022=DIRECTION('',(0.,0.,-1.));
#1023=DIRECTION('',(0.,1.,0.));
#1024=DIRECTION('center_axis',(0.,0.,1.));
#1025=DIRECTION('ref_axis',(1.,0.,0.));
#1026=DIRECTION('',(-1.,0.,0.));
#1027=DIRECTION('center_axis',(0.,0.,-1.));
#1028=DIRECTION('ref_axis',(0.707106781186554,-0.707106781186541,0.));
#1029=DIRECTION('',(0.,-1.,0.));
#1030=DIRECTION('center_axis',(0.,0.,-1.));
#1031=DIRECTION('ref_axis',(0.707106781186541,0.707106781186554,0.));
#1032=DIRECTION('',(1.,0.,0.));
#1033=DIRECTION('center_axis',(0.,0.,1.));
#1034=DIRECTION('ref_axis',(-0.707106781186551,-0.707106781186544,0.));
#1035=DIRECTION('',(0.,1.,0.));
#1036=DIRECTION('center_axis',(0.,0.,-1.));
#1037=DIRECTION('ref_axis',(0.707106781186541,0.707106781186554,0.));
#1038=DIRECTION('',(1.,0.,0.));
#1039=DIRECTION('center_axis',(0.,0.,-1.));
#1040=DIRECTION('ref_axis',(-0.707106781186551,0.707106781186544,0.));
#1041=DIRECTION('',(0.,1.,0.));
#1042=DIRECTION('',(0.65556770615116,0.755136400030952,0.));
#1043=DIRECTION('',(1.,0.,0.));
#1044=DIRECTION('',(0.,1.,0.));
#1045=DIRECTION('center_axis',(0.,0.,-1.));
#1046=DIRECTION('ref_axis',(0.707106781186548,0.707106781186548,0.));
#1047=DIRECTION('',(-1.,0.,0.));
#1048=DIRECTION('center_axis',(0.,0.,-1.));
#1049=DIRECTION('ref_axis',(-0.707106781186544,0.707106781186551,0.));
#1050=DIRECTION('',(0.,-1.,0.));
#1051=DIRECTION('center_axis',(0.,0.,-1.));
#1052=DIRECTION('ref_axis',(-0.707106781186548,-0.707106781186548,0.));
#1053=DIRECTION('',(1.,0.,0.));
#1054=DIRECTION('center_axis',(0.,0.,-1.));
#1055=DIRECTION('ref_axis',(0.707106781186548,-0.707106781186548,0.));
#1056=DIRECTION('',(0.,1.,0.));
#1057=DIRECTION('',(-1.,0.,0.));
#1058=DIRECTION('',(0.,-1.,0.));
#1059=DIRECTION('center_axis',(0.,0.,-1.));
#1060=DIRECTION('ref_axis',(-0.707106781186548,-0.707106781186548,0.));
#1061=DIRECTION('',(1.,0.,0.));
#1062=DIRECTION('center_axis',(0.,0.,-1.));
#1063=DIRECTION('ref_axis',(0.707106781186554,-0.707106781186541,0.));
#1064=DIRECTION('',(0.,1.,0.));
#1065=DIRECTION('',(-1.,0.,0.));
#1066=DIRECTION('center_axis',(0.,0.,-1.));
#1067=DIRECTION('ref_axis',(1.,0.,0.));
#1068=DIRECTION('center_axis',(0.,0.,-1.));
#1069=DIRECTION('ref_axis',(1.,0.,0.));
#1070=DIRECTION('',(-1.,0.,0.));
#1071=DIRECTION('',(0.,1.,0.));
#1072=DIRECTION('',(0.687068675504274,0.726592482166449,0.));
#1073=DIRECTION('',(1.,0.,0.));
#1074=DIRECTION('',(0.,-1.,0.));
#1075=DIRECTION('center_axis',(0.,0.,-1.));
#1076=DIRECTION('ref_axis',(1.,0.,0.));
#1077=DIRECTION('center_axis',(0.,0.,-1.));
#1078=DIRECTION('ref_axis',(0.707106781186554,-0.707106781186541,0.));
#1079=DIRECTION('center_axis',(0.,0.,1.));
#1080=DIRECTION('ref_axis',(0.707106781186554,-0.707106781186541,0.));
#1081=DIRECTION('',(0.,0.,1.));
#1082=DIRECTION('',(0.,0.,-1.));
#1083=DIRECTION('center_axis',(0.,-1.,0.));
#1084=DIRECTION('ref_axis',(-1.,0.,0.));
#1085=DIRECTION('',(0.,0.,1.));
#1086=DIRECTION('',(-1.,0.,0.));
#1087=DIRECTION('center_axis',(0.,0.,-1.));
#1088=DIRECTION('ref_axis',(-0.707106781186548,-0.707106781186548,0.));
#1089=DIRECTION('center_axis',(0.,0.,1.));
#1090=DIRECTION('ref_axis',(-0.707106781186548,-0.707106781186548,0.));
#1091=DIRECTION('',(0.,0.,-1.));
#1092=DIRECTION('center_axis',(-1.,0.,0.));
#1093=DIRECTION('ref_axis',(0.,1.,0.));
#1094=DIRECTION('',(0.,0.,-1.));
#1095=DIRECTION('',(0.,1.,0.));
#1096=DIRECTION('center_axis',(0.,0.,-1.));
#1097=DIRECTION('ref_axis',(0.707106781186548,-0.707106781186548,0.));
#1098=DIRECTION('center_axis',(0.,0.,1.));
#1099=DIRECTION('ref_axis',(0.707106781186548,-0.707106781186548,0.));
#1100=DIRECTION('',(0.,0.,1.));
#1101=DIRECTION('',(0.,0.,-1.));
#1102=DIRECTION('center_axis',(0.,-1.,0.));
#1103=DIRECTION('ref_axis',(-1.,0.,0.));
#1104=DIRECTION('',(0.,0.,1.));
#1105=DIRECTION('',(-1.,0.,0.));
#1106=DIRECTION('center_axis',(0.,0.,-1.));
#1107=DIRECTION('ref_axis',(-0.707106781186548,-0.707106781186548,0.));
#1108=DIRECTION('center_axis',(0.,0.,1.));
#1109=DIRECTION('ref_axis',(-0.707106781186548,-0.707106781186548,0.));
#1110=DIRECTION('',(0.,0.,-1.));
#1111=DIRECTION('center_axis',(-1.,0.,0.));
#1112=DIRECTION('ref_axis',(0.,1.,0.));
#1113=DIRECTION('',(0.,0.,1.));
#1114=DIRECTION('',(0.,1.,0.));
#1115=DIRECTION('center_axis',(0.,0.,-1.));
#1116=DIRECTION('ref_axis',(0.707106781186548,0.707106781186548,0.));
#1117=DIRECTION('center_axis',(0.,0.,1.));
#1118=DIRECTION('ref_axis',(0.707106781186548,0.707106781186548,0.));
#1119=DIRECTION('',(0.,0.,1.));
#1120=DIRECTION('',(0.,0.,-1.));
#1121=DIRECTION('center_axis',(0.,1.,0.));
#1122=DIRECTION('ref_axis',(1.,0.,0.));
#1123=DIRECTION('',(1.,0.,0.));
#1124=DIRECTION('',(0.,0.,-1.));
#1125=DIRECTION('center_axis',(0.,0.,-1.));
#1126=DIRECTION('ref_axis',(-0.707106781186544,0.707106781186551,0.));
#1127=DIRECTION('center_axis',(0.,0.,1.));
#1128=DIRECTION('ref_axis',(-0.707106781186544,0.707106781186551,0.));
#1129=DIRECTION('center_axis',(0.,0.,-1.));
#1130=DIRECTION('ref_axis',(0.707106781186554,-0.707106781186541,0.));
#1131=DIRECTION('center_axis',(0.,0.,1.));
#1132=DIRECTION('ref_axis',(0.707106781186554,-0.707106781186541,0.));
#1133=DIRECTION('',(0.,0.,1.));
#1134=DIRECTION('',(0.,0.,-1.));
#1135=DIRECTION('center_axis',(0.,-1.,0.));
#1136=DIRECTION('ref_axis',(-1.,0.,0.));
#1137=DIRECTION('',(-1.,0.,0.));
#1138=DIRECTION('center_axis',(0.,0.,-1.));
#1139=DIRECTION('ref_axis',(-0.707106781186551,0.707106781186544,0.));
#1140=DIRECTION('center_axis',(0.,0.,1.));
#1141=DIRECTION('ref_axis',(-0.707106781186551,0.707106781186544,0.));
#1142=DIRECTION('',(0.,0.,1.));
#1143=DIRECTION('',(0.,0.,-1.));
#1144=DIRECTION('center_axis',(0.,1.,0.));
#1145=DIRECTION('ref_axis',(1.,0.,0.));
#1146=DIRECTION('',(0.,0.,1.));
#1147=DIRECTION('',(1.,0.,0.));
#1148=DIRECTION('center_axis',(0.,0.,-1.));
#1149=DIRECTION('ref_axis',(-0.707106781186551,-0.707106781186544,0.));
#1150=DIRECTION('',(0.,0.,-1.));
#1151=DIRECTION('center_axis',(0.,0.,-1.));
#1152=DIRECTION('ref_axis',(-0.707106781186551,-0.707106781186544,0.));
#1153=DIRECTION('',(0.,0.,1.));
#1154=DIRECTION('center_axis',(0.,1.,0.));
#1155=DIRECTION('ref_axis',(1.,0.,0.));
#1156=DIRECTION('',(0.,0.,1.));
#1157=DIRECTION('',(1.,0.,0.));
#1158=DIRECTION('center_axis',(0.,0.,-1.));
#1159=DIRECTION('ref_axis',(0.707106781186541,0.707106781186554,0.));
#1160=DIRECTION('center_axis',(0.,0.,1.));
#1161=DIRECTION('ref_axis',(0.707106781186541,0.707106781186554,0.));
#1162=DIRECTION('',(0.,0.,-1.));
#1163=DIRECTION('center_axis',(1.,0.,0.));
#1164=DIRECTION('ref_axis',(0.,-1.,0.));
#1165=DIRECTION('',(0.,-1.,0.));
#1166=DIRECTION('center_axis',(0.,0.,-1.));
#1167=DIRECTION('ref_axis',(0.707106781186541,0.707106781186554,0.));
#1168=DIRECTION('center_axis',(0.,0.,1.));
#1169=DIRECTION('ref_axis',(0.707106781186541,0.707106781186554,0.));
#1170=DIRECTION('',(0.,0.,-1.));
#1171=DIRECTION('center_axis',(0.,0.,-1.));
#1172=DIRECTION('ref_axis',(1.,0.,0.));
#1173=DIRECTION('center_axis',(0.,0.,1.));
#1174=DIRECTION('ref_axis',(1.,0.,0.));
#1175=DIRECTION('',(0.,0.,1.));
#1176=DIRECTION('center_axis',(0.,0.,-1.));
#1177=DIRECTION('ref_axis',(1.,0.,0.));
#1178=DIRECTION('center_axis',(0.,0.,1.));
#1179=DIRECTION('ref_axis',(1.,0.,0.));
#1180=DIRECTION('',(0.,0.,1.));
#1181=DIRECTION('center_axis',(1.,0.,0.));
#1182=DIRECTION('ref_axis',(0.,-1.,0.));
#1183=DIRECTION('',(0.,0.,-1.));
#1184=DIRECTION('',(0.,-1.,0.));
#1185=DIRECTION('',(0.,0.,-1.));
#1186=DIRECTION('center_axis',(0.72659248216645,-0.687068675504274,0.));
#1187=DIRECTION('ref_axis',(-0.687068675504274,-0.72659248216645,0.));
#1188=DIRECTION('',(-0.687068675504274,-0.726592482166449,0.));
#1189=DIRECTION('',(0.,0.,-1.));
#1190=DIRECTION('center_axis',(0.,-1.,0.));
#1191=DIRECTION('ref_axis',(-1.,0.,0.));
#1192=DIRECTION('',(-1.,0.,0.));
#1193=DIRECTION('',(0.,0.,-1.));
#1194=DIRECTION('center_axis',(-1.,0.,0.));
#1195=DIRECTION('ref_axis',(0.,1.,0.));
#1196=DIRECTION('',(0.,1.,0.));
#1197=DIRECTION('',(0.,0.,-1.));
#1198=DIRECTION('center_axis',(0.,1.,0.));
#1199=DIRECTION('ref_axis',(1.,0.,0.));
#1200=DIRECTION('',(1.,0.,0.));
#1201=DIRECTION('center_axis',(0.,0.,-1.));
#1202=DIRECTION('ref_axis',(1.,0.,0.));
#1203=DIRECTION('center_axis',(0.,0.,1.));
#1204=DIRECTION('ref_axis',(1.,0.,0.));
#1205=DIRECTION('',(0.,0.,1.));
#1206=DIRECTION('center_axis',(-1.,0.,0.));
#1207=DIRECTION('ref_axis',(0.,1.,0.));
#1208=DIRECTION('',(0.,1.,0.));
#1209=DIRECTION('',(0.,0.,-1.));
#1210=DIRECTION('center_axis',(-0.755136400030952,0.65556770615116,0.));
#1211=DIRECTION('ref_axis',(0.65556770615116,0.755136400030952,0.));
#1212=DIRECTION('',(0.65556770615116,0.755136400030952,0.));
#1213=DIRECTION('',(0.,0.,-1.));
#1214=DIRECTION('center_axis',(0.,1.,0.));
#1215=DIRECTION('ref_axis',(1.,0.,0.));
#1216=DIRECTION('',(1.,0.,0.));
#1217=DIRECTION('',(0.,0.,-1.));
#1218=DIRECTION('center_axis',(1.,0.,0.));
#1219=DIRECTION('ref_axis',(0.,-1.,0.));
#1220=DIRECTION('',(0.,-1.,0.));
#1221=DIRECTION('center_axis',(1.,0.,0.));
#1222=DIRECTION('ref_axis',(0.,-1.,0.));
#1223=DIRECTION('',(0.,-1.,0.));
#1224=DIRECTION('',(0.,0.,-1.));
#1225=DIRECTION('center_axis',(0.,-1.,0.));
#1226=DIRECTION('ref_axis',(-1.,0.,0.));
#1227=DIRECTION('',(-1.,0.,0.));
#1228=DIRECTION('center_axis',(1.,0.,0.));
#1229=DIRECTION('ref_axis',(0.,-1.,0.));
#1230=DIRECTION('',(0.,-1.,0.));
#1231=DIRECTION('',(0.,0.,-1.));
#1232=DIRECTION('center_axis',(0.,-1.,0.));
#1233=DIRECTION('ref_axis',(-1.,0.,0.));
#1234=DIRECTION('',(-1.,0.,0.));
#1235=DIRECTION('center_axis',(1.,0.,0.));
#1236=DIRECTION('ref_axis',(0.,-1.,0.));
#1237=DIRECTION('',(0.,-1.,0.));
#1238=DIRECTION('center_axis',(0.,0.,1.));
#1239=DIRECTION('ref_axis',(1.,0.,0.));
#1240=CARTESIAN_POINT('',(0.,0.,0.));
#1241=CARTESIAN_POINT('Origin',(152.000002264977,-102.000001519918,-0.3));
#1242=CARTESIAN_POINT('',(150.500002264977,-102.000001519918,5.62050406216485E-15));
#1243=CARTESIAN_POINT('Origin',(152.000002264977,-102.000001519918,0.));
#1244=CARTESIAN_POINT('',(151.100002264976,-102.000001519918,-0.600000000000001));
#1245=CARTESIAN_POINT('',(150.800002264977,-102.000001519918,-0.3));
#1246=CARTESIAN_POINT('Origin',(152.000002264977,-102.000001519918,-0.6));
#1247=CARTESIAN_POINT('Origin',(152.000002264977,-102.000001519918,-1.5));
#1248=CARTESIAN_POINT('',(151.100002264976,-102.000001519918,-2.));
#1249=CARTESIAN_POINT('',(151.100002264976,-102.000001519918,-1.5));
#1250=CARTESIAN_POINT('Origin',(152.000002264977,-102.000001519918,-2.));
#1251=CARTESIAN_POINT('Origin',(151.000002250075,-79.0000011771917,-0.3));
#1252=CARTESIAN_POINT('',(149.500002250075,-79.0000011771917,5.62050406216485E-15));
#1253=CARTESIAN_POINT('Origin',(151.000002250075,-79.0000011771917,0.));
#1254=CARTESIAN_POINT('',(150.100002250075,-79.0000011771917,-0.600000000000001));
#1255=CARTESIAN_POINT('',(149.800002250075,-79.0000011771917,-0.3));
#1256=CARTESIAN_POINT('Origin',(151.000002250075,-79.0000011771917,-0.6));
#1257=CARTESIAN_POINT('Origin',(151.000002250075,-79.0000011771917,-1.5));
#1258=CARTESIAN_POINT('',(150.100002250075,-79.0000011771917,-2.));
#1259=CARTESIAN_POINT('',(150.100002250075,-79.0000011771917,-1.5));
#1260=CARTESIAN_POINT('Origin',(151.000002250075,-79.0000011771917,-2.));
#1261=CARTESIAN_POINT('Origin',(185.000002726912,-108.000001639128,0.));
#1262=CARTESIAN_POINT('',(183.000002726912,-108.000001639128,-2.));
#1263=CARTESIAN_POINT('',(185.000002726912,-110.000001639128,-2.));
#1264=CARTESIAN_POINT('Origin',(185.000002726912,-108.000001639128,-2.));
#1265=CARTESIAN_POINT('',(185.000002726912,-110.000001639128,0.));
#1266=CARTESIAN_POINT('',(185.000002726912,-110.000001639128,0.));
#1267=CARTESIAN_POINT('',(183.000002726912,-108.000001639128,0.));
#1268=CARTESIAN_POINT('Origin',(185.000002726912,-108.000001639128,0.));
#1269=CARTESIAN_POINT('',(183.000002726912,-108.000001639128,0.));
#1270=CARTESIAN_POINT('Origin',(183.000002726912,-110.000001639128,0.));
#1271=CARTESIAN_POINT('',(183.000002726912,-92.0000013709068,0.));
#1272=CARTESIAN_POINT('',(183.000002726912,-110.000001639128,0.));
#1273=CARTESIAN_POINT('',(183.000002726912,-92.0000013709068,-2.));
#1274=CARTESIAN_POINT('',(183.000002726912,-92.0000013709068,0.));
#1275=CARTESIAN_POINT('',(183.000002726912,-110.000001639128,-2.));
#1276=CARTESIAN_POINT('Origin',(160.500002391636,-83.0000012367964,0.));
#1277=CARTESIAN_POINT('',(188.000002831221,-110.000001639128,0.));
#1278=CARTESIAN_POINT('',(190.000002831221,-110.000001639128,0.));
#1279=CARTESIAN_POINT('',(190.000002831221,-108.000001639128,0.));
#1280=CARTESIAN_POINT('Origin',(188.000002831221,-108.000001639128,0.));
#1281=CARTESIAN_POINT('',(190.000002831221,-72.0000010430813,0.));
#1282=CARTESIAN_POINT('',(190.000002831221,-76.0000011324883,0.));
#1283=CARTESIAN_POINT('',(188.000002831221,-70.0000010430813,0.));
#1284=CARTESIAN_POINT('Origin',(188.000002831221,-72.0000010430813,0.));
#1285=CARTESIAN_POINT('',(176.000002592802,-70.0000010430813,0.));
#1286=CARTESIAN_POINT('',(166.000002473593,-70.0000010430813,0.));
#1287=CARTESIAN_POINT('',(174.000002592802,-68.0000010430813,0.));
#1288=CARTESIAN_POINT('Origin',(176.000002592802,-68.0000010430813,0.));
#1289=CARTESIAN_POINT('',(174.000002592802,-58.000000834465,0.));
#1290=CARTESIAN_POINT('',(174.000002592802,-70.0000010430813,0.));
#1291=CARTESIAN_POINT('',(172.000002592802,-56.000000834465,0.));
#1292=CARTESIAN_POINT('Origin',(172.000002592802,-58.000000834465,0.));
#1293=CARTESIAN_POINT('',(168.000002473593,-56.000000834465,0.));
#1294=CARTESIAN_POINT('',(166.000002473593,-56.000000834465,0.));
#1295=CARTESIAN_POINT('',(166.000002473593,-58.000000834465,0.));
#1296=CARTESIAN_POINT('Origin',(168.000002473593,-58.000000834465,0.));
#1297=CARTESIAN_POINT('',(166.000002473593,-70.0000010430813,0.));
#1298=CARTESIAN_POINT('',(166.000002473593,-70.0000010430813,0.));
#1299=CARTESIAN_POINT('',(162.527423395731,-74.0000011026859,0.));
#1300=CARTESIAN_POINT('',(162.527423395731,-74.0000011026859,0.));
#1301=CARTESIAN_POINT('',(136.000002026558,-74.0000011026859,0.));
#1302=CARTESIAN_POINT('',(136.000002026558,-74.0000011026859,0.));
#1303=CARTESIAN_POINT('',(136.000002026558,-58.000000834465,0.));
#1304=CARTESIAN_POINT('',(136.000002026558,-110.000001639128,0.));
#1305=CARTESIAN_POINT('',(134.000002026558,-56.000000834465,0.));
#1306=CARTESIAN_POINT('Origin',(134.000002026558,-58.000000834465,0.));
#1307=CARTESIAN_POINT('',(133.000001952052,-56.000000834465,0.));
#1308=CARTESIAN_POINT('',(136.000002026558,-56.000000834465,0.));
#1309=CARTESIAN_POINT('',(131.000001952052,-58.000000834465,0.));
#1310=CARTESIAN_POINT('Origin',(133.000001952052,-58.000000834465,0.));
#1311=CARTESIAN_POINT('',(131.000001952052,-108.000001639128,0.));
#1312=CARTESIAN_POINT('',(131.000001952052,-56.000000834465,0.));
#1313=CARTESIAN_POINT('',(133.000001952052,-110.000001639128,0.));
#1314=CARTESIAN_POINT('Origin',(133.000001952052,-108.000001639128,0.));
#1315=CARTESIAN_POINT('',(134.000002026558,-110.000001639128,0.));
#1316=CARTESIAN_POINT('',(131.000001952052,-110.000001639128,0.));
#1317=CARTESIAN_POINT('',(136.000002026558,-108.000001639128,0.));
#1318=CARTESIAN_POINT('Origin',(134.000002026558,-108.000001639128,0.));
#1319=CARTESIAN_POINT('',(136.000002026558,-78.6950789629813,0.));
#1320=CARTESIAN_POINT('',(136.000002026558,-110.000001639128,0.));
#1321=CARTESIAN_POINT('',(140.016329859655,-78.6950789629813,0.));
#1322=CARTESIAN_POINT('',(166.451526445634,-78.6950789629813,0.));
#1323=CARTESIAN_POINT('',(140.016329859655,-104.650967200597,0.));
#1324=CARTESIAN_POINT('',(140.016329859655,-78.6950789629813,0.));
#1325=CARTESIAN_POINT('',(142.016329859655,-106.650967200597,0.));
#1326=CARTESIAN_POINT('Origin',(142.016329859655,-104.650967200597,0.));
#1327=CARTESIAN_POINT('',(164.451526445634,-106.650967200597,0.));
#1328=CARTESIAN_POINT('',(140.016329859655,-106.650967200597,0.));
#1329=CARTESIAN_POINT('',(166.451526445634,-104.650967200597,0.));
#1330=CARTESIAN_POINT('Origin',(164.451526445634,-104.650967200597,0.));
#1331=CARTESIAN_POINT('',(166.451526445634,-92.0000013709068,0.));
#1332=CARTESIAN_POINT('',(166.451526445634,-106.650967200597,0.));
#1333=CARTESIAN_POINT('',(183.000002726912,-92.0000013709068,0.));
#1334=CARTESIAN_POINT('',(132.849997002631,-58.9999986812472,0.));
#1335=CARTESIAN_POINT('Origin',(134.099997002631,-58.9999986812472,0.));
#1336=CARTESIAN_POINT('',(166.749996244907,-72.9999983683228,0.));
#1337=CARTESIAN_POINT('Origin',(167.999996244907,-72.9999983683228,0.));
#1338=CARTESIAN_POINT('',(183.000002726912,-85.8382163096876,0.));
#1339=CARTESIAN_POINT('',(166.451526445634,-85.8382163096876,0.));
#1340=CARTESIAN_POINT('',(166.451526445634,-85.8382163096876,0.));
#1341=CARTESIAN_POINT('',(166.451526445634,-78.6950789629813,0.));
#1342=CARTESIAN_POINT('',(166.451526445634,-106.650967200597,0.));
#1343=CARTESIAN_POINT('',(169.000002518296,-76.0000011324883,0.));
#1344=CARTESIAN_POINT('',(169.000002518296,-76.0000011324883,0.));
#1345=CARTESIAN_POINT('',(183.000002726912,-76.0000011324883,0.));
#1346=CARTESIAN_POINT('',(190.000002831221,-76.0000011324883,0.));
#1347=CARTESIAN_POINT('',(183.000002726912,-110.000001639128,0.));
#1348=CARTESIAN_POINT('',(132.849997002631,-106.999997608364,0.));
#1349=CARTESIAN_POINT('Origin',(134.099997002631,-106.999997608364,0.));
#1350=CARTESIAN_POINT('Origin',(164.451526445634,-104.650967200597,0.));
#1351=CARTESIAN_POINT('',(164.451526445634,-106.650967200597,-2.));
#1352=CARTESIAN_POINT('',(166.451526445634,-104.650967200597,-2.));
#1353=CARTESIAN_POINT('Origin',(164.451526445634,-104.650967200597,-2.));
#1354=CARTESIAN_POINT('',(166.451526445634,-104.650967200597,0.));
#1355=CARTESIAN_POINT('',(164.451526445634,-106.650967200597,0.));
#1356=CARTESIAN_POINT('Origin',(166.451526445634,-106.650967200597,0.));
#1357=CARTESIAN_POINT('',(142.016329859655,-106.650967200597,-2.));
#1358=CARTESIAN_POINT('',(142.016329859655,-106.650967200597,0.));
#1359=CARTESIAN_POINT('',(140.016329859655,-106.650967200597,-2.));
#1360=CARTESIAN_POINT('Origin',(142.016329859655,-104.650967200597,0.));
#1361=CARTESIAN_POINT('',(140.016329859655,-104.650967200597,-2.));
#1362=CARTESIAN_POINT('Origin',(142.016329859655,-104.650967200597,-2.));
#1363=CARTESIAN_POINT('',(140.016329859655,-104.650967200597,0.));
#1364=CARTESIAN_POINT('Origin',(140.016329859655,-106.650967200597,0.));
#1365=CARTESIAN_POINT('',(140.016329859655,-78.6950789629813,-2.));
#1366=CARTESIAN_POINT('',(140.016329859655,-78.6950789629813,0.));
#1367=CARTESIAN_POINT('',(140.016329859655,-78.6950789629813,-2.));
#1368=CARTESIAN_POINT('Origin',(134.000002026558,-108.000001639128,0.));
#1369=CARTESIAN_POINT('',(134.000002026558,-110.000001639128,-2.));
#1370=CARTESIAN_POINT('',(136.000002026558,-108.000001639128,-2.));
#1371=CARTESIAN_POINT('Origin',(134.000002026558,-108.000001639128,-2.));
#1372=CARTESIAN_POINT('',(136.000002026558,-108.000001639128,0.));
#1373=CARTESIAN_POINT('',(134.000002026558,-110.000001639128,0.));
#1374=CARTESIAN_POINT('Origin',(136.000002026558,-110.000001639128,0.));
#1375=CARTESIAN_POINT('',(133.000001952052,-110.000001639128,-2.));
#1376=CARTESIAN_POINT('',(133.000001952052,-110.000001639128,0.));
#1377=CARTESIAN_POINT('',(131.000001952052,-110.000001639128,-2.));
#1378=CARTESIAN_POINT('Origin',(133.000001952052,-108.000001639128,0.));
#1379=CARTESIAN_POINT('',(131.000001952052,-108.000001639128,-2.));
#1380=CARTESIAN_POINT('Origin',(133.000001952052,-108.000001639128,-2.));
#1381=CARTESIAN_POINT('',(131.000001952052,-108.000001639128,0.));
#1382=CARTESIAN_POINT('Origin',(131.000001952052,-110.000001639128,0.));
#1383=CARTESIAN_POINT('',(131.000001952052,-58.000000834465,-2.));
#1384=CARTESIAN_POINT('',(131.000001952052,-58.000000834465,0.));
#1385=CARTESIAN_POINT('',(131.000001952052,-56.000000834465,-2.));
#1386=CARTESIAN_POINT('Origin',(134.000002026558,-58.000000834465,0.));
#1387=CARTESIAN_POINT('',(136.000002026558,-58.000000834465,-2.));
#1388=CARTESIAN_POINT('',(134.000002026558,-56.000000834465,-2.));
#1389=CARTESIAN_POINT('Origin',(134.000002026558,-58.000000834465,-2.));
#1390=CARTESIAN_POINT('',(134.000002026558,-56.000000834465,0.));
#1391=CARTESIAN_POINT('',(136.000002026558,-58.000000834465,0.));
#1392=CARTESIAN_POINT('Origin',(131.000001952052,-56.000000834465,0.));
#1393=CARTESIAN_POINT('',(133.000001952052,-56.000000834465,-2.));
#1394=CARTESIAN_POINT('',(136.000002026558,-56.000000834465,-2.));
#1395=CARTESIAN_POINT('',(133.000001952052,-56.000000834465,0.));
#1396=CARTESIAN_POINT('Origin',(133.000001952052,-58.000000834465,0.));
#1397=CARTESIAN_POINT('Origin',(133.000001952052,-58.000000834465,-2.));
#1398=CARTESIAN_POINT('Origin',(188.000002831221,-108.000001639128,0.));
#1399=CARTESIAN_POINT('',(188.000002831221,-110.000001639128,-2.));
#1400=CARTESIAN_POINT('',(190.000002831221,-108.000001639128,-2.));
#1401=CARTESIAN_POINT('Origin',(188.000002831221,-108.000001639128,-2.));
#1402=CARTESIAN_POINT('',(190.000002831221,-108.000001639128,0.));
#1403=CARTESIAN_POINT('',(188.000002831221,-110.000001639128,0.));
#1404=CARTESIAN_POINT('Origin',(190.000002831221,-110.000001639128,0.));
#1405=CARTESIAN_POINT('',(190.000002831221,-110.000001639128,-2.));
#1406=CARTESIAN_POINT('Origin',(168.000002473593,-58.000000834465,0.));
#1407=CARTESIAN_POINT('',(168.000002473593,-56.000000834465,-2.));
#1408=CARTESIAN_POINT('',(166.000002473593,-58.000000834465,-2.));
#1409=CARTESIAN_POINT('Origin',(168.000002473593,-58.000000834465,-2.));
#1410=CARTESIAN_POINT('',(166.000002473593,-58.000000834465,0.));
#1411=CARTESIAN_POINT('',(168.000002473593,-56.000000834465,0.));
#1412=CARTESIAN_POINT('Origin',(166.000002473593,-56.000000834465,0.));
#1413=CARTESIAN_POINT('',(172.000002592802,-56.000000834465,-2.));
#1414=CARTESIAN_POINT('',(172.000002592802,-56.000000834465,0.));
#1415=CARTESIAN_POINT('',(166.000002473593,-56.000000834465,-2.));
#1416=CARTESIAN_POINT('Origin',(176.000002592802,-68.0000010430813,0.));
#1417=CARTESIAN_POINT('',(176.000002592802,-70.0000010430813,-2.));
#1418=CARTESIAN_POINT('',(176.000002592802,-70.0000010430813,0.));
#1419=CARTESIAN_POINT('',(174.000002592802,-68.0000010430813,-2.));
#1420=CARTESIAN_POINT('Origin',(176.000002592802,-68.0000010430813,-2.));
#1421=CARTESIAN_POINT('',(174.000002592802,-68.0000010430813,0.));
#1422=CARTESIAN_POINT('Origin',(174.000002592802,-70.0000010430813,0.));
#1423=CARTESIAN_POINT('',(188.000002831221,-70.0000010430813,-2.));
#1424=CARTESIAN_POINT('',(188.000002831221,-70.0000010430813,0.));
#1425=CARTESIAN_POINT('',(166.000002473593,-70.0000010430813,-2.));
#1426=CARTESIAN_POINT('Origin',(172.000002592802,-58.000000834465,0.));
#1427=CARTESIAN_POINT('',(174.000002592802,-58.000000834465,-2.));
#1428=CARTESIAN_POINT('Origin',(172.000002592802,-58.000000834465,-2.));
#1429=CARTESIAN_POINT('',(174.000002592802,-58.000000834465,0.));
#1430=CARTESIAN_POINT('Origin',(174.000002592802,-56.000000834465,0.));
#1431=CARTESIAN_POINT('',(174.000002592802,-70.0000010430813,-2.));
#1432=CARTESIAN_POINT('Origin',(188.000002831221,-72.0000010430813,0.));
#1433=CARTESIAN_POINT('',(190.000002831221,-72.0000010430813,-2.));
#1434=CARTESIAN_POINT('Origin',(188.000002831221,-72.0000010430813,-2.));
#1435=CARTESIAN_POINT('',(190.000002831221,-72.0000010430813,0.));
#1436=CARTESIAN_POINT('Origin',(134.099997002631,-58.9999986812472,0.));
#1437=CARTESIAN_POINT('',(132.849997002631,-58.9999986812472,-2.));
#1438=CARTESIAN_POINT('Origin',(134.099997002631,-58.9999986812472,-2.));
#1439=CARTESIAN_POINT('',(132.849997002631,-58.9999986812472,0.));
#1440=CARTESIAN_POINT('Origin',(167.999996244907,-72.9999983683228,0.));
#1441=CARTESIAN_POINT('',(166.749996244907,-72.9999983683228,-2.));
#1442=CARTESIAN_POINT('Origin',(167.999996244907,-72.9999983683228,-2.));
#1443=CARTESIAN_POINT('',(166.749996244907,-72.9999983683228,0.));
#1444=CARTESIAN_POINT('Origin',(166.451526445634,-78.6950789629813,0.));
#1445=CARTESIAN_POINT('',(166.451526445634,-85.8382163096876,-2.));
#1446=CARTESIAN_POINT('',(166.451526445634,-85.8382163096876,0.));
#1447=CARTESIAN_POINT('',(166.451526445634,-78.6950789629813,-2.));
#1448=CARTESIAN_POINT('',(166.451526445634,-106.650967200597,-2.));
#1449=CARTESIAN_POINT('',(166.451526445634,-78.6950789629813,0.));
#1450=CARTESIAN_POINT('Origin',(169.000002518296,-76.0000011324883,0.));
#1451=CARTESIAN_POINT('',(169.000002518296,-76.0000011324883,-2.));
#1452=CARTESIAN_POINT('',(169.000002518296,-76.0000011324883,-2.));
#1453=CARTESIAN_POINT('',(169.000002518296,-76.0000011324883,0.));
#1454=CARTESIAN_POINT('Origin',(183.000002726912,-76.0000011324883,0.));
#1455=CARTESIAN_POINT('',(183.000002726912,-76.0000011324883,-2.));
#1456=CARTESIAN_POINT('',(190.000002831221,-76.0000011324883,-2.));
#1457=CARTESIAN_POINT('',(183.000002726912,-76.0000011324883,0.));
#1458=CARTESIAN_POINT('Origin',(183.000002726912,-85.8382163096876,0.));
#1459=CARTESIAN_POINT('',(183.000002726912,-85.8382163096876,-2.));
#1460=CARTESIAN_POINT('',(183.000002726912,-110.000001639128,-2.));
#1461=CARTESIAN_POINT('',(183.000002726912,-85.8382163096876,0.));
#1462=CARTESIAN_POINT('Origin',(166.451526445634,-85.8382163096876,0.));
#1463=CARTESIAN_POINT('',(166.451526445634,-85.8382163096876,-2.));
#1464=CARTESIAN_POINT('Origin',(134.099997002631,-106.999997608364,0.));
#1465=CARTESIAN_POINT('',(132.849997002631,-106.999997608364,-2.));
#1466=CARTESIAN_POINT('Origin',(134.099997002631,-106.999997608364,-2.));
#1467=CARTESIAN_POINT('',(132.849997002631,-106.999997608364,0.));
#1468=CARTESIAN_POINT('Origin',(166.000002473593,-70.0000010430813,0.));
#1469=CARTESIAN_POINT('',(166.000002473593,-70.0000010430813,-2.));
#1470=CARTESIAN_POINT('',(166.000002473593,-70.0000010430813,-2.));
#1471=CARTESIAN_POINT('',(166.000002473593,-70.0000010430813,0.));
#1472=CARTESIAN_POINT('Origin',(162.527423395731,-74.0000011026859,0.));
#1473=CARTESIAN_POINT('',(162.527423395731,-74.0000011026859,-2.));
#1474=CARTESIAN_POINT('',(162.527423395731,-74.0000011026859,-2.));
#1475=CARTESIAN_POINT('',(162.527423395731,-74.0000011026859,0.));
#1476=CARTESIAN_POINT('Origin',(136.000002026558,-74.0000011026859,0.));
#1477=CARTESIAN_POINT('',(136.000002026558,-74.0000011026859,-2.));
#1478=CARTESIAN_POINT('',(136.000002026558,-74.0000011026859,-2.));
#1479=CARTESIAN_POINT('',(136.000002026558,-74.0000011026859,0.));
#1480=CARTESIAN_POINT('Origin',(136.000002026558,-56.000000834465,0.));
#1481=CARTESIAN_POINT('',(136.000002026558,-110.000001639128,-2.));
#1482=CARTESIAN_POINT('Origin',(136.000002026558,-78.6950789629813,0.));
#1483=CARTESIAN_POINT('',(136.000002026558,-78.6950789629813,-2.));
#1484=CARTESIAN_POINT('',(136.000002026558,-110.000001639128,-2.));
#1485=CARTESIAN_POINT('',(136.000002026558,-78.6950789629813,0.));
#1486=CARTESIAN_POINT('Origin',(140.016329859655,-78.6950789629813,0.));
#1487=CARTESIAN_POINT('',(166.451526445634,-78.6950789629813,-2.));
#1488=CARTESIAN_POINT('Origin',(166.451526445634,-92.0000013709068,0.));
#1489=CARTESIAN_POINT('',(166.451526445634,-92.0000013709068,-2.));
#1490=CARTESIAN_POINT('',(166.451526445634,-106.650967200597,-2.));
#1491=CARTESIAN_POINT('',(166.451526445634,-92.0000013709068,0.));
#1492=CARTESIAN_POINT('Origin',(183.000002726912,-92.0000013709068,0.));
#1493=CARTESIAN_POINT('',(183.000002726912,-92.0000013709068,-2.));
#1494=CARTESIAN_POINT('Origin',(190.000002831221,-70.0000010430813,0.));
#1495=CARTESIAN_POINT('',(190.000002831221,-76.0000011324883,-2.));
#1496=CARTESIAN_POINT('Origin',(160.500002391636,-83.0000012367964,-2.));
#1497=UNCERTAINTY_MEASURE_WITH_UNIT(LENGTH_MEASURE(0.01),#1501,
'DISTANCE_ACCURACY_VALUE',
'Maximum model space distance between geometric entities at asserted c
onnectivities');
#1498=UNCERTAINTY_MEASURE_WITH_UNIT(LENGTH_MEASURE(0.01),#1501,
'DISTANCE_ACCURACY_VALUE',
'Maximum model space distance between geometric entities at asserted c
onnectivities');
#1499=(
GEOMETRIC_REPRESENTATION_CONTEXT(3)
GLOBAL_UNCERTAINTY_ASSIGNED_CONTEXT((#1497))
GLOBAL_UNIT_ASSIGNED_CONTEXT((#1501,#1502,#1503))
REPRESENTATION_CONTEXT('','3D')
);
#1500=(
GEOMETRIC_REPRESENTATION_CONTEXT(3)
GLOBAL_UNCERTAINTY_ASSIGNED_CONTEXT((#1498))
GLOBAL_UNIT_ASSIGNED_CONTEXT((#1501,#1502,#1503))
REPRESENTATION_CONTEXT('','3D')
);
#1501=(
LENGTH_UNIT()
NAMED_UNIT(*)
SI_UNIT(.MILLI.,.METRE.)
);
#1502=(
NAMED_UNIT(*)
PLANE_ANGLE_UNIT()
SI_UNIT($,.RADIAN.)
);
#1503=(
NAMED_UNIT(*)
SI_UNIT($,.STERADIAN.)
SOLID_ANGLE_UNIT()
);
#1504=SHAPE_DEFINITION_REPRESENTATION(#1505,#1506);
#1505=PRODUCT_DEFINITION_SHAPE('',$,#1508);
#1506=SHAPE_REPRESENTATION('',(#903),#1499);
#1507=PRODUCT_DEFINITION_CONTEXT('part definition',#1512,'design');
#1508=PRODUCT_DEFINITION('(Unsaved)','(Unsaved)',#1509,#1507);
#1509=PRODUCT_DEFINITION_FORMATION('',$,#1514);
#1510=PRODUCT_RELATED_PRODUCT_CATEGORY('(Unsaved)','(Unsaved)',(#1514));
#1511=APPLICATION_PROTOCOL_DEFINITION('international standard',
'automotive_design',2009,#1512);
#1512=APPLICATION_CONTEXT(
'Core Data for Automotive Mechanical Design Process');
#1513=PRODUCT_CONTEXT('part definition',#1512,'mechanical');
#1514=PRODUCT('(Unsaved)','(Unsaved)',$,(#1513));
#1515=PRESENTATION_STYLE_ASSIGNMENT((#1516));
#1516=SURFACE_STYLE_USAGE(.BOTH.,#1517);
#1517=SURFACE_SIDE_STYLE('',(#1518));
#1518=SURFACE_STYLE_FILL_AREA(#1519);
#1519=FILL_AREA_STYLE('Steel - Satin',(#1520));
#1520=FILL_AREA_STYLE_COLOUR('Steel - Satin',#1521);
#1521=COLOUR_RGB('Steel - Satin',0.627450980392157,0.627450980392157,0.627450980392157);
ENDSEC;
END-ISO-10303-21;
